<svg width="157" height="57" viewBox="0 0 157 57" fill="none" xmlns="http://www.w3.org/2000/svg">
<path d="M23.8387 5.73831L5.75711 23.8199C3.44851 26.1285 3.44851 29.8715 5.75711 32.1801L23.8387 50.2617C26.1473 52.5703 29.8903 52.5703 32.1989 50.2617L50.2805 32.1801C52.5891 29.8715 52.5891 26.1285 50.2805 23.8199L32.1989 5.73831C29.8903 3.42971 26.1473 3.42971 23.8387 5.73831Z" stroke="#142E52" stroke-width="3.33822"/>
<g clip-path="url(#clip0_2147_1202)">
<path d="M17.1235 18.4787C15.3564 19.509 13.9225 20.8162 13.2668 21.5288C13.2668 21.5288 21.2381 18.5692 24.7356 23.2323C14.6264 18.4633 14.1628 31.5573 14.1628 31.5573C15.2274 30.5038 18.256 27.4527 20.8929 26.4798C22.697 25.8141 25.1562 26.3784 25.0763 26.3995C21.7204 29.6202 25.557 50.6165 27.4285 51.4211C28.9935 51.9589 29.7225 51.0463 30.3469 49.9546C28.6826 45.9963 22.9718 27.7104 28.1741 26.4491C28.1749 26.4489 28.1753 26.4482 28.176 26.448C28.6245 26.36 29.1086 26.3803 29.3261 26.7127C29.7405 27.346 29.9356 28.6594 30.4642 29.3446C31.6906 30.9348 32.3743 31.3394 33.2123 31.6574C34.0042 30.3216 33.7541 27.2983 33.275 25.9325C34.5909 25.7861 36.8945 25.8766 40.5564 29.038C39.1359 24.9144 36.4088 22.5894 32.2498 23.2591C33.3578 21.7686 41.6481 21.2876 43.4716 22.6344C42.3611 18.9486 34.6704 18.094 30.2982 20.8997C31.03 20.1774 32.1285 19.8934 32.6465 18.7098C33.3415 17.1215 34.3088 15.5407 35.1471 13.9586C29.619 14.5877 26.0892 17.8909 26.9506 20.046C24.176 15.7612 20.1559 16.7108 17.1234 18.4788L17.1235 18.4787Z" fill="#142E52"/>
</g>
<path d="M66.4148 24.9552C65.3433 24.9552 64.3866 24.695 63.5448 24.1746C62.7029 23.6541 62.0447 22.9347 61.5702 22.0163C61.111 21.0979 60.8814 20.0571 60.8814 18.8938C60.8814 17.7305 61.1187 16.6973 61.5932 15.7942C62.0677 14.8758 62.7259 14.1564 63.5677 13.6359C64.4249 13.1002 65.3892 12.8323 66.4607 12.8323C67.3332 12.8323 68.0908 13.0007 68.7337 13.3374C69.3919 13.6589 69.9123 14.1181 70.295 14.715V8.14849H73.0502V24.6797H70.5705L70.295 23.0036C70.0501 23.3404 69.7516 23.6618 69.3996 23.9679C69.0475 24.2588 68.6266 24.496 68.1368 24.6797C67.6469 24.8634 67.0729 24.9552 66.4148 24.9552ZM66.9888 22.5674C67.6469 22.5674 68.2286 22.4143 68.7337 22.1082C69.2388 21.7867 69.6292 21.3505 69.9047 20.7994C70.1802 20.2484 70.318 19.6132 70.318 18.8938C70.318 18.1744 70.1802 17.5391 69.9047 16.9881C69.6292 16.437 69.2388 16.0085 68.7337 15.7023C68.2286 15.3962 67.6469 15.2431 66.9888 15.2431C66.3612 15.2431 65.7948 15.3962 65.2897 15.7023C64.7846 16.0085 64.3866 16.437 64.0958 16.9881C63.8203 17.5391 63.6825 18.1744 63.6825 18.8938C63.6825 19.6132 63.8203 20.2484 64.0958 20.7994C64.3866 21.3505 64.7846 21.7867 65.2897 22.1082C65.7948 22.4143 66.3612 22.5674 66.9888 22.5674ZM76.0898 24.6797V13.1078H78.845V24.6797H76.0898ZM77.4674 11.271C76.9623 11.271 76.5413 11.118 76.2046 10.8118C75.8832 10.4904 75.7224 10.1001 75.7224 9.64089C75.7224 9.16638 75.8832 8.78371 76.2046 8.49289C76.5413 8.18675 76.9623 8.03369 77.4674 8.03369C77.9725 8.03369 78.3858 8.18675 78.7072 8.49289C79.044 8.78371 79.2124 9.16638 79.2124 9.64089C79.2124 10.1001 79.044 10.4904 78.7072 10.8118C78.3858 11.118 77.9725 11.271 77.4674 11.271ZM85.7462 24.9552C84.7972 24.9552 84.0089 24.7945 83.3813 24.473C82.7537 24.1516 82.2869 23.723 81.9807 23.1873C81.6746 22.6516 81.5215 22.0699 81.5215 21.4423C81.5215 20.7076 81.7052 20.0724 82.0726 19.5366C82.4553 19.0009 83.0139 18.5876 83.7487 18.2968C84.4834 17.9907 85.3865 17.8376 86.4579 17.8376H89.3739C89.3739 17.2253 89.2897 16.7202 89.1213 16.3222C88.9529 15.909 88.6927 15.6028 88.3407 15.4038C87.9886 15.2049 87.5371 15.1054 86.986 15.1054C86.3585 15.1054 85.8227 15.2508 85.3788 15.5416C84.9349 15.8171 84.6594 16.2457 84.5523 16.8274H81.843C81.9348 16.0008 82.2103 15.2967 82.6695 14.715C83.1287 14.1181 83.7334 13.6589 84.4834 13.3374C85.2487 13.0007 86.0829 12.8323 86.986 12.8323C88.0728 12.8323 88.9989 13.0237 89.7642 13.4063C90.5295 13.7737 91.1112 14.3094 91.5091 15.0135C91.9224 15.7023 92.1291 16.5365 92.1291 17.5162V24.6797H89.7871L89.5116 22.8199C89.3586 23.1261 89.1596 23.4092 88.9147 23.6694C88.6851 23.9297 88.4172 24.1593 88.1111 24.3582C87.8049 24.5419 87.4529 24.6873 87.0549 24.7945C86.6722 24.9016 86.236 24.9552 85.7462 24.9552ZM86.3661 22.774C86.81 22.774 87.2003 22.6975 87.5371 22.5444C87.8891 22.376 88.1876 22.1464 88.4325 21.8556C88.6927 21.5495 88.8917 21.2127 89.0295 20.8454C89.1672 20.478 89.2591 20.0877 89.305 19.6744V19.6285H86.7564C86.2207 19.6285 85.7768 19.6974 85.4247 19.8351C85.0727 19.9576 84.8201 20.1413 84.6671 20.3862C84.514 20.6311 84.4375 20.9142 84.4375 21.2357C84.4375 21.5571 84.514 21.8326 84.6671 22.0622C84.8201 22.2918 85.0421 22.4679 85.3329 22.5903C85.6237 22.7128 85.9681 22.774 86.3661 22.774ZM94.933 24.6797V13.1078H97.3667L97.5963 14.6921C97.9637 14.1104 98.4459 13.6589 99.0428 13.3374C99.6551 13.0007 100.352 12.8323 101.132 12.8323C101.714 12.8323 102.234 12.9089 102.693 13.0619C103.168 13.215 103.581 13.4446 103.933 13.7507C104.301 14.0569 104.599 14.4395 104.829 14.8987C105.257 14.2558 105.816 13.7507 106.505 13.3834C107.194 13.016 107.944 12.8323 108.755 12.8323C109.719 12.8323 110.538 13.0313 111.212 13.4293C111.885 13.812 112.398 14.386 112.75 15.1513C113.102 15.9013 113.278 16.8274 113.278 17.9294V24.6797H110.546V18.205C110.546 17.2253 110.347 16.4753 109.949 15.9549C109.551 15.4345 108.962 15.1742 108.181 15.1742C107.645 15.1742 107.171 15.3044 106.757 15.5646C106.359 15.8248 106.046 16.2074 105.816 16.7126C105.586 17.2024 105.472 17.807 105.472 18.5264V24.6797H102.739V18.205C102.739 17.2253 102.54 16.4753 102.142 15.9549C101.744 15.4345 101.147 15.1742 100.352 15.1742C99.8464 15.1742 99.3872 15.3044 98.9739 15.5646C98.576 15.8248 98.2622 16.2074 98.0326 16.7126C97.803 17.2024 97.6882 17.807 97.6882 18.5264V24.6797H94.933ZM121.445 24.9552C120.342 24.9552 119.347 24.7026 118.46 24.1975C117.587 23.6771 116.898 22.9653 116.393 22.0622C115.903 21.1438 115.659 20.0953 115.659 18.9167C115.659 17.7075 115.911 16.6513 116.416 15.7482C116.921 14.8298 117.61 14.1181 118.483 13.613C119.37 13.0925 120.365 12.8323 121.467 12.8323C122.57 12.8323 123.557 13.0925 124.429 13.613C125.317 14.1181 126.006 14.8222 126.496 15.7253C127.001 16.6284 127.253 17.6845 127.253 18.8938C127.253 20.103 127.001 21.1592 126.496 22.0622C125.991 22.9653 125.294 23.6771 124.406 24.1975C123.534 24.7026 122.547 24.9552 121.445 24.9552ZM121.445 22.5903C121.996 22.5903 122.493 22.4526 122.937 22.177C123.396 21.9015 123.763 21.4882 124.039 20.9372C124.315 20.3862 124.452 19.705 124.452 18.8938C124.452 18.0825 124.315 17.409 124.039 16.8733C123.779 16.3222 123.419 15.909 122.96 15.6334C122.516 15.3579 122.019 15.2202 121.467 15.2202C120.932 15.2202 120.434 15.3579 119.975 15.6334C119.516 15.909 119.149 16.3222 118.873 16.8733C118.597 17.409 118.46 18.0825 118.46 18.8938C118.46 19.705 118.597 20.3862 118.873 20.9372C119.149 21.4882 119.508 21.9015 119.952 22.177C120.411 22.4526 120.909 22.5903 121.445 22.5903ZM129.81 24.6797V13.1078H132.244L132.451 15.0365C132.803 14.363 133.308 13.8273 133.966 13.4293C134.624 13.0313 135.405 12.8323 136.308 12.8323C137.242 12.8323 138.038 13.0313 138.696 13.4293C139.354 13.812 139.859 14.3783 140.211 15.1283C140.579 15.8784 140.762 16.8121 140.762 17.9294V24.6797H138.007V18.182C138.007 17.2177 137.793 16.4753 137.364 15.9549C136.936 15.4345 136.3 15.1742 135.459 15.1742C134.908 15.1742 134.41 15.3044 133.966 15.5646C133.538 15.8248 133.193 16.2074 132.933 16.7126C132.688 17.2024 132.566 17.7993 132.566 18.5034V24.6797H129.81ZM148.67 24.9552C147.599 24.9552 146.642 24.695 145.8 24.1746C144.958 23.6541 144.3 22.9347 143.826 22.0163C143.366 21.0979 143.137 20.0571 143.137 18.8938C143.137 17.7305 143.374 16.6973 143.849 15.7942C144.323 14.8758 144.981 14.1564 145.823 13.6359C146.68 13.1002 147.645 12.8323 148.716 12.8323C149.589 12.8323 150.346 13.0007 150.989 13.3374C151.647 13.6589 152.168 14.1181 152.55 14.715V8.14849H155.306V24.6797H152.826L152.55 23.0036C152.306 23.3404 152.007 23.6618 151.655 23.9679C151.303 24.2588 150.882 24.496 150.392 24.6797C149.902 24.8634 149.328 24.9552 148.67 24.9552ZM149.244 22.5674C149.902 22.5674 150.484 22.4143 150.989 22.1082C151.494 21.7867 151.885 21.3505 152.16 20.7994C152.436 20.2484 152.573 19.6132 152.573 18.8938C152.573 18.1744 152.436 17.5391 152.16 16.9881C151.885 16.437 151.494 16.0085 150.989 15.7023C150.484 15.3962 149.902 15.2431 149.244 15.2431C148.617 15.2431 148.05 15.3962 147.545 15.7023C147.04 16.0085 146.642 16.437 146.351 16.9881C146.076 17.5391 145.938 18.1744 145.938 18.8938C145.938 19.6132 146.076 20.2484 146.351 20.7994C146.642 21.3505 147.04 21.7867 147.545 22.1082C148.05 22.4143 148.617 22.5674 149.244 22.5674Z" fill="#142E52"/>
<path d="M61.3636 47.6396V31.1084H62.3968V38.4786C62.7794 37.6214 63.3381 36.9632 64.0728 36.504C64.8229 36.0295 65.6188 35.7923 66.4607 35.7923C67.3025 35.7923 68.0449 35.9607 68.6878 36.2974C69.3307 36.6342 69.8281 37.1546 70.1802 37.8587C70.5476 38.5628 70.7312 39.4659 70.7312 40.568V47.6396H69.721V40.7287C69.721 39.3664 69.4302 38.3638 68.8485 37.7209C68.2669 37.0627 67.4327 36.7336 66.3459 36.7336C65.5959 36.7336 64.9224 36.925 64.3254 37.3076C63.7284 37.675 63.2539 38.2107 62.9019 38.9148C62.5651 39.6036 62.3968 40.4532 62.3968 41.4634V47.6396H61.3636ZM77.0904 47.9152C76.2179 47.9152 75.4832 47.7468 74.8862 47.41C74.2892 47.0733 73.8377 46.6371 73.5316 46.1013C73.2254 45.5503 73.0724 44.961 73.0724 44.3334C73.0724 43.4915 73.2637 42.8027 73.6464 42.267C74.029 41.7313 74.5648 41.3333 75.2536 41.0731C75.9577 40.7976 76.7689 40.6598 77.6873 40.6598H81.1772C81.1772 39.8332 81.0548 39.1291 80.8099 38.5475C80.5803 37.9658 80.2206 37.5143 79.7308 37.1928C79.2409 36.8714 78.5981 36.7107 77.8021 36.7107C76.8684 36.7107 76.0954 36.9326 75.4832 37.3765C74.8862 37.8204 74.5035 38.4939 74.3352 39.397H73.279C73.3861 38.5858 73.654 37.9199 74.0826 37.3995C74.5265 36.8638 75.0699 36.4658 75.7128 36.2056C76.3556 35.93 77.0521 35.7923 77.8021 35.7923C78.8583 35.7923 79.7078 36.0066 80.3507 36.4352C80.9936 36.8484 81.4604 37.4148 81.7512 38.1342C82.0574 38.8383 82.2104 39.6419 82.2104 40.545V47.6396H81.292L81.1772 45.3207C81.0548 45.5656 80.8864 45.8411 80.6721 46.1472C80.4578 46.4534 80.19 46.7366 79.8685 46.9968C79.5471 47.257 79.1568 47.4713 78.6976 47.6396C78.2537 47.8233 77.7179 47.9152 77.0904 47.9152ZM77.2052 46.9738C77.8633 46.9738 78.4373 46.8514 78.9272 46.6064C79.417 46.3462 79.8302 46.0095 80.167 45.5962C80.5037 45.1676 80.7563 44.7084 80.9247 44.2186C81.093 43.7288 81.1772 43.2466 81.1772 42.7721V41.5552H77.7562C76.8531 41.5552 76.1413 41.6777 75.6209 41.9226C75.1005 42.1522 74.7255 42.4736 74.4959 42.8869C74.2816 43.3002 74.1744 43.7747 74.1744 44.3104C74.1744 44.8003 74.2892 45.2518 74.5188 45.6651C74.7484 46.0631 75.0928 46.3845 75.552 46.6294C76.0112 46.859 76.5623 46.9738 77.2052 46.9738ZM89.9884 47.9152C88.9476 47.9152 88.0138 47.6703 87.1873 47.1804C86.3607 46.6753 85.7102 45.9712 85.2357 45.0681C84.7765 44.1497 84.5469 43.0859 84.5469 41.8767C84.5469 40.6368 84.7841 39.5654 85.2586 38.6623C85.7485 37.7439 86.4066 37.0398 87.2332 36.55C88.0598 36.0448 88.9782 35.7923 89.9884 35.7923C91.2895 35.7923 92.3686 36.129 93.2258 36.8025C94.0982 37.476 94.6493 38.3408 94.8789 39.397H93.7998C93.6161 38.5704 93.1798 37.9199 92.491 37.4454C91.8176 36.9709 90.9833 36.7336 89.9884 36.7336C89.2537 36.7336 88.5496 36.925 87.8761 37.3076C87.2026 37.675 86.6592 38.2414 86.2459 39.0067C85.8326 39.7567 85.626 40.7134 85.626 41.8767C85.626 42.7645 85.7485 43.5298 85.9934 44.1727C86.2383 44.8156 86.5674 45.3513 86.9806 45.7799C87.4092 46.1932 87.8837 46.4993 88.4042 46.6983C88.9246 46.8973 89.4527 46.9968 89.9884 46.9968C90.6313 46.9968 91.2129 46.8973 91.7334 46.6983C92.2691 46.484 92.7206 46.1779 93.088 45.7799C93.4554 45.3666 93.6926 44.8768 93.7998 44.3104H94.8789C94.6646 45.3513 94.1289 46.2161 93.2717 46.9049C92.4298 47.5784 91.3354 47.9152 89.9884 47.9152ZM104.242 47.6396L98.2954 41.3027L103.783 36.0678H105.137L99.2826 41.6241V40.9812L105.643 47.6396H104.242ZM97.4688 47.6396V31.1084H98.502V47.6396H97.4688ZM110.495 47.9152C109.653 47.9152 108.895 47.7774 108.222 47.5019C107.548 47.2111 107.005 46.7825 106.592 46.2161C106.194 45.6498 105.941 44.9457 105.834 44.1038H106.936C106.997 44.7161 107.189 45.2365 107.51 45.6651C107.847 46.0937 108.275 46.4228 108.796 46.6524C109.316 46.8667 109.89 46.9738 110.518 46.9738C111.145 46.9738 111.674 46.8743 112.102 46.6753C112.546 46.4763 112.883 46.2008 113.112 45.8488C113.357 45.4814 113.48 45.0758 113.48 44.6319C113.48 44.0655 113.357 43.6293 113.112 43.3232C112.883 43.0017 112.531 42.7568 112.056 42.5884C111.582 42.4201 110.985 42.267 110.265 42.1292C109.684 42.0221 109.156 41.8843 108.681 41.716C108.222 41.5476 107.824 41.341 107.487 41.096C107.15 40.8511 106.89 40.5527 106.707 40.2006C106.538 39.8332 106.454 39.42 106.454 38.9608C106.454 38.3332 106.607 37.7822 106.913 37.3076C107.235 36.8331 107.678 36.4658 108.245 36.2056C108.811 35.93 109.485 35.7923 110.265 35.7923C111.367 35.7923 112.278 36.0831 112.998 36.6648C113.732 37.2464 114.153 38.1036 114.26 39.2363H113.204C113.158 38.4863 112.875 37.8816 112.355 37.4224C111.85 36.9632 111.145 36.7336 110.242 36.7336C109.37 36.7336 108.696 36.9326 108.222 37.3306C107.763 37.7133 107.533 38.226 107.533 38.8689C107.533 39.2363 107.625 39.5654 107.809 39.8562C108.008 40.147 108.321 40.4072 108.75 40.6368C109.179 40.8511 109.753 41.0348 110.472 41.1879C111.222 41.3256 111.903 41.5017 112.515 41.716C113.143 41.9303 113.64 42.2517 114.008 42.6803C114.375 43.1089 114.559 43.7211 114.559 44.5171C114.559 45.1753 114.39 45.7646 114.054 46.285C113.732 46.7901 113.265 47.1881 112.653 47.4789C112.056 47.7698 111.337 47.9152 110.495 47.9152Z" fill="#142E52"/>
<defs>
<clipPath id="clip0_2147_1202">
<rect width="37.3333" height="37.3333" fill="white" transform="translate(5.06055 23.707) rotate(-30)"/>
</clipPath>
</defs>
</svg>
