<svg width="57" height="57" viewBox="0 0 57 57" fill="none" xmlns="http://www.w3.org/2000/svg">
<path d="M23.8387 5.73831L5.75711 23.8199C3.44851 26.1285 3.44851 29.8715 5.75711 32.1801L23.8387 50.2617C26.1473 52.5703 29.8903 52.5703 32.1989 50.2617L50.2805 32.1801C52.5891 29.8715 52.5891 26.1285 50.2805 23.8199L32.1989 5.73831C29.8903 3.42971 26.1473 3.42971 23.8387 5.73831Z" stroke="#142E52" stroke-width="3.33822"/>
<g clip-path="url(#clip0_2097_777)">
<path d="M17.1235 18.4787C15.3564 19.509 13.9225 20.8162 13.2668 21.5288C13.2668 21.5288 21.2381 18.5692 24.7356 23.2323C14.6264 18.4633 14.1628 31.5573 14.1628 31.5573C15.2274 30.5038 18.256 27.4527 20.8929 26.4798C22.697 25.8141 25.1562 26.3784 25.0763 26.3995C21.7204 29.6202 25.557 50.6165 27.4285 51.4211C28.9935 51.9589 29.7225 51.0463 30.3469 49.9546C28.6826 45.9963 22.9718 27.7104 28.1741 26.4491C28.1749 26.4489 28.1753 26.4482 28.176 26.448C28.6245 26.36 29.1086 26.3803 29.3261 26.7127C29.7405 27.346 29.9356 28.6594 30.4642 29.3446C31.6906 30.9348 32.3743 31.3394 33.2123 31.6574C34.0042 30.3216 33.7541 27.2983 33.275 25.9325C34.5909 25.7861 36.8945 25.8766 40.5564 29.038C39.1359 24.9144 36.4088 22.5894 32.2498 23.2591C33.3578 21.7686 41.6481 21.2876 43.4716 22.6344C42.3611 18.9486 34.6704 18.094 30.2982 20.8997C31.03 20.1774 32.1285 19.8934 32.6465 18.7098C33.3415 17.1215 34.3088 15.5407 35.1471 13.9586C29.619 14.5877 26.0892 17.8909 26.9506 20.046C24.176 15.7612 20.1559 16.7108 17.1234 18.4788L17.1235 18.4787Z" fill="#142E52"/>
</g>
<defs>
<clipPath id="clip0_2097_777">
<rect width="37.3333" height="37.3333" fill="white" transform="translate(5.06055 23.707) rotate(-30)"/>
</clipPath>
</defs>
</svg>
