<svg width="32" height="25" viewBox="0 0 32 25" fill="none" xmlns="http://www.w3.org/2000/svg">
<path d="M27.076 2.02621C25.0493 1.08169 22.855 0.396157 20.5692 7.00741e-05C20.5492 -0.000570677 20.5292 0.00318923 20.5108 0.0110855C20.4924 0.0189818 20.4759 0.0308226 20.4625 0.0457727C20.1882 0.548498 19.8682 1.20356 19.6549 1.70629C17.2304 1.34067 14.7648 1.34067 12.3404 1.70629C12.1271 1.18833 11.8071 0.548498 11.5175 0.0457727C11.5023 0.0153045 11.4566 7.00741e-05 11.4108 7.00741e-05C9.12507 0.396157 6.94596 1.08169 4.904 2.02621C4.88876 2.02621 4.87353 2.04144 4.85829 2.05667C0.713413 8.25696 -0.429476 14.2897 0.134349 20.2614C0.134349 20.2919 0.149587 20.3224 0.180064 20.3376C2.923 22.3485 5.55926 23.5672 8.16505 24.3746C8.21076 24.3899 8.25648 24.3746 8.27171 24.3442C8.88126 23.5063 9.42984 22.6227 9.90224 21.6934C9.93271 21.6325 9.90224 21.5716 9.84128 21.5563C8.97269 21.2212 8.14981 20.8251 7.34217 20.3681C7.28121 20.3376 7.28121 20.2462 7.32693 20.2005C7.49455 20.0786 7.66217 19.9415 7.8298 19.8196C7.86027 19.7892 7.90599 19.7892 7.93647 19.8044C13.1785 22.1962 18.832 22.1962 24.0131 19.8044C24.0436 19.7892 24.0893 19.7892 24.1198 19.8196C24.2874 19.9568 24.455 20.0786 24.6226 20.2157C24.6836 20.2614 24.6836 20.3528 24.6074 20.3833C23.815 20.8556 22.9769 21.2364 22.1083 21.5716C22.0473 21.5868 22.0321 21.663 22.0473 21.7087C22.535 22.638 23.0836 23.5215 23.6779 24.3594C23.7236 24.3746 23.7693 24.3899 23.815 24.3746C26.436 23.5672 29.0723 22.3485 31.8152 20.3376C31.8457 20.3224 31.8609 20.2919 31.8609 20.2614C32.5314 13.3604 30.7485 7.37338 27.137 2.05667C27.1218 2.04144 27.1065 2.02621 27.076 2.02621ZM10.6946 16.6205C9.12507 16.6205 7.81456 15.1732 7.81456 13.3909C7.81456 11.6085 9.09459 10.1612 10.6946 10.1612C12.3099 10.1612 13.59 11.6237 13.5747 13.3909C13.5747 15.1732 12.2947 16.6205 10.6946 16.6205ZM21.3159 16.6205C19.7463 16.6205 18.4358 15.1732 18.4358 13.3909C18.4358 11.6085 19.7158 10.1612 21.3159 10.1612C22.9312 10.1612 24.2112 11.6237 24.196 13.3909C24.196 15.1732 22.9312 16.6205 21.3159 16.6205Z" fill="#142E52"/>
</svg>
