<svg width="32" height="32" viewBox="0 0 32 32" fill="none" xmlns="http://www.w3.org/2000/svg">
<path d="M15.9951 0C11.6523 0 11.1062 0.0190514 9.3983 0.0952568C7.69671 0.171463 6.53481 0.444531 5.51893 0.83826C4.46496 1.24469 3.57607 1.79717 2.68718 2.68624C1.79829 3.5753 1.25226 4.47073 0.839561 5.51855C0.445909 6.53462 0.172894 7.69676 0.0967031 9.40502C0.0205126 11.1069 0.00146484 11.6531 0.00146484 15.9968C0.00146484 20.3405 0.0205126 20.8866 0.0967031 22.5949C0.172894 24.2969 0.445909 25.459 0.839561 26.4814C1.24591 27.5355 1.79829 28.4246 2.68718 29.3138C3.57607 30.2027 4.47132 30.7489 5.51893 31.1618C6.53481 31.5554 7.69671 31.8285 9.40465 31.9046C11.1126 31.981 11.6523 32 16.0015 32C20.3444 32 20.8904 31.981 22.5982 31.9046C24.3 31.8285 25.4619 31.5554 26.4841 31.1618C27.538 30.7553 28.427 30.2027 29.3157 29.3138C30.2047 28.4246 30.7508 27.5293 31.1634 26.4814C31.557 25.4654 31.8301 24.3033 31.9063 22.5949C31.9824 20.8866 32.0015 20.3469 32.0015 15.9968C32.0015 11.6531 31.9824 11.1069 31.9063 9.39867C31.8301 7.69675 31.557 6.53462 31.1634 5.51219C30.757 4.45802 30.2047 3.56896 29.3157 2.67989C28.427 1.79083 27.5316 1.24469 26.4841 0.83191C25.4681 0.438181 24.3062 0.165111 22.5982 0.0889064C20.884 0.0190514 20.338 0 15.9951 0ZM15.9951 2.88311C20.2682 2.88311 20.7698 2.90215 22.4586 2.97836C24.0206 3.04821 24.8649 3.30858 25.43 3.53086C26.1793 3.82298 26.7126 4.1659 27.2713 4.72474C27.83 5.28358 28.1793 5.81702 28.465 6.56637C28.6809 7.13156 28.9476 7.97617 29.0173 9.53839C29.0935 11.2276 29.1125 11.7293 29.1125 16.0032C29.1125 20.2769 29.0935 20.7786 29.0173 22.4679C28.9476 24.0301 28.6873 24.8747 28.465 25.4399C28.1729 26.1894 27.83 26.7227 27.2713 27.2816C26.7126 27.8404 26.1793 28.1897 25.43 28.4755C24.8649 28.6914 24.0206 28.958 22.4586 29.0279C20.7698 29.1041 20.2682 29.1232 15.9951 29.1232C11.7221 29.1232 11.2205 29.1041 9.53164 29.0279C7.96973 28.958 7.12528 28.6977 6.5602 28.4755C5.81099 28.1833 5.27766 27.8404 4.71893 27.2816C4.1602 26.7227 3.81099 26.1894 3.52528 25.4399C3.3094 24.8747 3.04273 24.0301 2.97289 22.4679C2.8967 20.7786 2.87766 20.2769 2.87766 16.0032C2.87766 11.7293 2.8967 11.2276 2.97289 9.53839C3.04273 7.97617 3.30306 7.13156 3.52528 6.56637C3.81734 5.81702 4.1602 5.28358 4.71893 4.72474C5.27766 4.1659 5.81099 3.81662 6.5602 3.53086C7.12528 3.31493 7.96973 3.04821 9.53164 2.97836C11.2205 2.8958 11.7285 2.88311 15.9951 2.88311Z" fill="#142E52"/>
<path d="M15.9956 21.3312C13.0495 21.3312 10.6622 18.9434 10.6622 15.9968C10.6622 13.0502 13.0495 10.6624 15.9956 10.6624C18.9416 10.6624 21.3288 13.0502 21.3288 15.9968C21.3288 18.9434 18.9416 21.3312 15.9956 21.3312ZM15.9956 7.78564C11.4622 7.78564 7.77965 11.4626 7.77965 16.0032C7.77965 20.5373 11.4558 24.2207 15.9956 24.2207C20.5288 24.2207 24.2115 20.5437 24.2115 16.0032C24.2115 11.4626 20.5352 7.78564 15.9956 7.78564Z" fill="#142E52"/>
<path d="M26.4524 7.45542C26.4524 8.51595 25.5953 9.37326 24.535 9.37326C23.4747 9.37326 22.6176 8.51595 22.6176 7.45542C22.6176 6.3949 23.4747 5.53759 24.535 5.53759C25.5953 5.53759 26.4524 6.3949 26.4524 7.45542Z" fill="#142E52"/>
</svg>
