<svg width="1440" height="1001" viewBox="0 0 1440 1001" fill="none" xmlns="http://www.w3.org/2000/svg">
<path d="M1178 195.5C1178 251.005 1133 296 1077.5 296C1022 296 977 251.005 977 195.5C977 139.995 1022 95 1077.5 95C1133 95 1178 139.995 1178 195.5Z" fill="white"/>
<path d="M1178 195.5C1178 251.005 1133 296 1077.5 296C1022 296 977 251.005 977 195.5C977 139.995 1022 95 1077.5 95C1133 95 1178 139.995 1178 195.5Z" fill="url(#paint0_linear_1452_6948)"/>
<path fill-rule="evenodd" clip-rule="evenodd" d="M944.537 237.015C941.057 238.156 937.34 238.773 933.479 238.773C913.885 238.773 898 222.888 898 203.293C898 183.699 913.885 167.814 933.479 167.814C936.22 167.814 938.889 168.125 941.452 168.714C946.827 155.956 959.448 147 974.162 147C987.621 147 999.33 154.495 1005.34 165.539C1009.94 163.358 1015.09 162.138 1020.52 162.138C1040.12 162.138 1056 178.022 1056 197.617C1056 217.211 1040.12 233.096 1020.52 233.096C1015.8 233.096 1011.3 232.174 1007.18 230.501C1001.99 243.656 989.161 252.964 974.162 252.964C961.783 252.964 950.885 246.625 944.537 237.015Z" fill="url(#paint1_linear_1452_6948)"/>
<path fill-rule="evenodd" clip-rule="evenodd" d="M1325.68 305.047C1320.77 306.657 1315.52 307.527 1310.07 307.527C1282.42 307.527 1260 285.108 1260 257.453C1260 229.797 1282.42 207.378 1310.07 207.378C1313.94 207.378 1317.71 207.817 1321.33 208.647C1328.91 190.641 1346.73 178 1367.49 178C1386.49 178 1403.02 188.578 1411.5 204.166C1418 201.087 1425.26 199.365 1432.93 199.365C1460.58 199.365 1483 221.784 1483 249.44C1483 277.096 1460.58 299.515 1432.93 299.515C1426.26 299.515 1419.91 298.214 1414.09 295.852C1406.77 314.419 1388.66 327.557 1367.49 327.557C1350.02 327.557 1334.64 318.61 1325.68 305.047Z" fill="url(#paint2_linear_1452_6948)"/>
<path fill-rule="evenodd" clip-rule="evenodd" d="M24.188 324.143C20.5099 325.348 16.5811 326 12.5 326C-8.21068 326 -25 309.211 -25 288.5C-25 267.789 -8.21068 251 12.5 251C15.3975 251 18.2182 251.329 20.927 251.951C26.6085 238.466 39.9488 229 55.5 229C69.7263 229 82.1023 236.922 88.4575 248.595C93.3212 246.29 98.76 245 104.5 245C125.211 245 142 261.789 142 282.5C142 303.211 125.211 320 104.5 320C99.5112 320 94.75 319.026 90.3961 317.257C84.91 331.162 71.3539 341 55.5 341C42.4162 341 30.8975 334.299 24.188 324.143Z" fill="url(#paint3_linear_1452_6948)"/>
<path fill-rule="evenodd" clip-rule="evenodd" d="M863.531 511.581C867.286 512.519 871.252 512.888 875.322 512.595C895.979 511.11 911.521 493.159 910.036 472.502C908.551 451.845 890.6 436.303 869.943 437.788C867.053 437.996 864.263 438.526 861.606 439.341C854.972 426.298 840.987 417.814 825.476 418.929C811.286 419.949 799.51 428.739 794.008 440.838C788.992 438.887 783.475 437.991 777.749 438.402C757.092 439.888 741.55 457.838 743.036 478.495C744.521 499.153 762.471 514.695 783.129 513.209C788.105 512.851 792.784 511.538 797 509.462C803.469 522.937 817.696 531.777 833.509 530.64C846.559 529.702 857.567 522.192 863.531 511.581Z" fill="url(#paint4_linear_1452_6948)"/>
<path fill-rule="evenodd" clip-rule="evenodd" d="M54.5258 631.824C48.5791 633.773 42.227 634.827 35.6287 634.827C2.14441 634.827 -25 607.682 -25 574.198C-25 540.714 2.14441 513.569 35.6287 513.569C40.3132 513.569 44.8736 514.101 49.253 515.106C58.4387 493.305 80.0069 478 105.15 478C128.15 478 148.159 490.808 158.434 509.681C166.298 505.953 175.091 503.868 184.371 503.868C217.856 503.868 245 531.013 245 564.497C245 597.981 217.856 625.126 184.371 625.126C176.306 625.126 168.608 623.551 161.569 620.692C152.699 643.172 130.782 659.078 105.15 659.078C83.9965 659.078 65.3734 648.245 54.5258 631.824Z" fill="url(#paint5_linear_1452_6948)"/>
<path fill-rule="evenodd" clip-rule="evenodd" d="M1381.19 95.1427C1377.51 96.3481 1373.58 97 1369.5 97C1348.79 97 1332 80.2107 1332 59.5C1332 38.7893 1348.79 22 1369.5 22C1372.4 22 1375.22 22.3286 1377.93 22.9506C1383.61 9.46613 1396.95 0 1412.5 0C1426.73 0 1439.1 7.92189 1445.46 19.595C1450.32 17.2897 1455.76 16 1461.5 16C1482.21 16 1499 32.7893 1499 53.5C1499 74.2107 1482.21 91 1461.5 91C1456.51 91 1451.75 90.0258 1447.4 88.2573C1441.91 102.162 1428.35 112 1412.5 112C1399.42 112 1387.9 105.299 1381.19 95.1427Z" fill="url(#paint6_linear_1452_6948)"/>
<rect x="1183" y="536" width="33" height="257" fill="white"/>
<rect x="1183" y="536" width="33" height="257" fill="url(#paint7_linear_1452_6948)"/>
<path d="M1197.46 535.882C1149.39 481.502 1001.36 452.597 828.629 490.109C897.281 399.449 1069.79 333.738 1197.46 535.882Z" fill="white"/>
<path d="M1197.46 535.882C1149.39 481.502 1001.36 452.597 828.629 490.109C897.281 399.449 1069.79 333.738 1197.46 535.882Z" fill="url(#paint8_linear_1452_6948)"/>
<path d="M1197.25 535.033C1179.8 464.579 1061.96 370.459 891.47 323.78C994.282 275.179 1177.62 296.757 1197.25 535.033Z" fill="white"/>
<path d="M1197.25 535.033C1179.8 464.579 1061.96 370.459 891.47 323.78C994.282 275.179 1177.62 296.757 1197.25 535.033Z" fill="url(#paint9_linear_1452_6948)"/>
<path d="M1197.37 535.373C1210.59 464.003 1142.15 329.603 1006.18 216.659C1119.89 214.876 1277.94 310.272 1197.37 535.373Z" fill="white"/>
<path d="M1197.37 535.373C1210.59 464.003 1142.15 329.603 1006.18 216.659C1119.89 214.876 1277.94 310.272 1197.37 535.373Z" fill="url(#paint10_linear_1452_6948)"/>
<path d="M1197.47 535.033C1214.92 464.579 1332.77 370.459 1503.26 323.78C1400.44 275.179 1217.1 296.757 1197.47 535.033Z" fill="white"/>
<path d="M1197.47 535.033C1214.92 464.579 1332.77 370.459 1503.26 323.78C1400.44 275.179 1217.1 296.757 1197.47 535.033Z" fill="url(#paint11_linear_1452_6948)"/>
<path d="M1197.24 534.428C1245.31 480.048 1393.33 451.143 1566.07 488.654C1497.42 397.995 1324.9 332.283 1197.24 534.428Z" fill="white"/>
<path d="M1197.24 534.428C1245.31 480.048 1393.33 451.143 1566.07 488.654C1497.42 397.995 1324.9 332.283 1197.24 534.428Z" fill="url(#paint12_linear_1452_6948)"/>
<rect x="981" y="793" width="40" height="61" fill="white"/>
<rect x="981" y="793" width="40" height="61" fill="url(#paint13_linear_1452_6948)"/>
<path d="M1001.28 793.79C965.402 753.208 854.939 731.638 726.034 759.631C777.266 691.975 906.006 642.937 1001.28 793.79Z" fill="white"/>
<path d="M1001.28 793.79C965.402 753.208 854.939 731.638 726.034 759.631C777.266 691.975 906.006 642.937 1001.28 793.79Z" fill="url(#paint14_linear_1452_6948)"/>
<path d="M1001.12 793.156C988.099 740.579 900.155 670.341 772.929 635.506C849.653 599.237 986.472 615.34 1001.12 793.156Z" fill="white"/>
<path d="M1001.12 793.156C988.099 740.579 900.155 670.341 772.929 635.506C849.653 599.237 986.472 615.34 1001.12 793.156Z" fill="url(#paint15_linear_1452_6948)"/>
<path d="M1001.21 793.41C1011.07 740.149 960.004 639.852 858.535 555.566C943.389 554.236 1061.33 625.426 1001.21 793.41Z" fill="white"/>
<path d="M1001.21 793.41C1011.07 740.149 960.004 639.852 858.535 555.566C943.389 554.236 1061.33 625.426 1001.21 793.41Z" fill="url(#paint16_linear_1452_6948)"/>
<path d="M1000.58 793.41C990.715 740.149 1041.78 639.852 1143.25 555.566C1058.4 554.236 940.455 625.426 1000.58 793.41Z" fill="white"/>
<path d="M1000.58 793.41C990.715 740.149 1041.78 639.852 1143.25 555.566C1058.4 554.236 940.455 625.426 1000.58 793.41Z" fill="url(#paint17_linear_1452_6948)"/>
<path d="M1001.29 793.156C1014.31 740.579 1102.25 670.341 1229.48 635.506C1152.76 599.237 1015.94 615.34 1001.29 793.156Z" fill="white"/>
<path d="M1001.29 793.156C1014.31 740.579 1102.25 670.341 1229.48 635.506C1152.76 599.237 1015.94 615.34 1001.29 793.156Z" fill="url(#paint18_linear_1452_6948)"/>
<path d="M1001.11 792.704C1036.99 752.122 1147.45 730.552 1276.36 758.545C1225.12 690.889 1096.38 641.851 1001.11 792.704Z" fill="white"/>
<path d="M1001.11 792.704C1036.99 752.122 1147.45 730.552 1276.36 758.545C1225.12 690.889 1096.38 641.851 1001.11 792.704Z" fill="url(#paint19_linear_1452_6948)"/>
<g style="mix-blend-mode:color-burn">
<ellipse cx="1197" cy="332" rx="31" ry="8" fill="#DEDEDE"/>
</g>
<rect x="1197.24" y="180" width="110.646" height="110.646" rx="10" transform="rotate(45 1197.24 180)" fill="white"/>
<rect x="1197.24" y="180" width="110.646" height="110.646" rx="10" transform="rotate(45 1197.24 180)" fill="url(#paint20_linear_1452_6948)"/>
<ellipse cx="1181.22" cy="252" rx="2.5" ry="5" fill="white"/>
<ellipse cx="1205.22" cy="252" rx="2.5" ry="5" fill="white"/>
<path d="M1173.83 260.06L1171.12 263.042" stroke="white" stroke-linecap="round"/>
<path d="M1177.33 260L1174.62 262.982" stroke="white" stroke-linecap="round"/>
<path d="M1212.12 260.06L1214.83 263.042" stroke="white" stroke-linecap="round"/>
<path d="M1208.62 260L1211.33 262.982" stroke="white" stroke-linecap="round"/>
<path d="M1189 260C1190.17 261.167 1193.5 262.8 1197.5 260" stroke="white" stroke-width="2" stroke-linecap="round"/>
<g style="mix-blend-mode:soft-light">
<path d="M1261.53 244.456C1220.74 270.774 1194.89 310.907 1187.48 326.808C1191.6 331.463 1194.99 332.486 1197.09 332.267C1212.71 294.436 1252.21 264.742 1271.4 254.325L1261.53 244.456Z" fill="#707070"/>
</g>
<path d="M1196.52 535.373C1183.31 464.003 1251.74 329.603 1387.71 216.659C1274 214.876 1115.96 310.272 1196.52 535.373Z" fill="white"/>
<path d="M1196.52 535.373C1183.31 464.003 1251.74 329.603 1387.71 216.659C1274 214.876 1115.96 310.272 1196.52 535.373Z" fill="url(#paint21_linear_1452_6948)"/>
<g style="mix-blend-mode:color-burn">
<ellipse cx="897.985" cy="730.162" rx="27.8009" ry="7.17442" transform="rotate(4.45016 897.985 730.162)" fill="#BDBDBD"/>
</g>
<rect x="910.148" y="594.651" width="99.2279" height="99.2279" rx="8.96803" transform="rotate(50.4372 910.148 594.651)" fill="white"/>
<rect x="910.148" y="594.651" width="99.2279" height="99.2279" rx="8.96803" transform="rotate(50.4372 910.148 594.651)" fill="url(#paint22_linear_1452_6948)"/>
<path d="M883.87 663.372L881.195 665.804" stroke="white" stroke-width="0.896803" stroke-linecap="round"/>
<path d="M886.998 663.615L884.323 666.047" stroke="white" stroke-width="0.896803" stroke-linecap="round"/>
<path d="M919.39 666.753L921.558 669.645" stroke="white" stroke-width="0.896803" stroke-linecap="round"/>
<path d="M916.272 666.401L918.44 669.294" stroke="white" stroke-width="0.896803" stroke-linecap="round"/>
<path d="M897.781 665.543C898.723 666.684 901.56 668.425 905.369 666.265" stroke="white" stroke-width="1.79361" stroke-linecap="round"/>
<path d="M887.279 652.832L891.895 655.888C892.552 656.323 892.369 657.333 891.601 657.51L886.727 658.635" stroke="white" stroke-width="1.79361" stroke-linecap="round"/>
<path d="M917.187 655.679L912.077 657.809C911.35 658.112 911.339 659.138 912.06 659.457L916.634 661.482" stroke="white" stroke-width="1.79361" stroke-linecap="round"/>
<path fill-rule="evenodd" clip-rule="evenodd" d="M886.526 972.824C880.579 974.773 874.227 975.827 867.629 975.827C834.144 975.827 807 948.682 807 915.198C807 881.714 834.144 854.569 867.629 854.569C872.313 854.569 876.874 855.101 881.253 856.106C890.439 834.305 912.007 819 937.15 819C960.15 819 980.159 831.808 990.434 850.681C998.298 846.953 1007.09 844.868 1016.37 844.868C1049.86 844.868 1077 872.013 1077 905.497C1077 938.981 1049.86 966.126 1016.37 966.126C1008.31 966.126 1000.61 964.551 993.569 961.692C984.699 984.172 962.782 1000.08 937.15 1000.08C915.996 1000.08 897.373 989.245 886.526 972.824Z" fill="url(#paint23_linear_1452_6948)"/>
<path fill-rule="evenodd" clip-rule="evenodd" d="M1208.58 960.619C1200.01 963.427 1190.86 964.946 1181.35 964.946C1133.11 964.946 1094 925.838 1094 877.595C1094 829.353 1133.11 790.245 1181.35 790.245C1188.1 790.245 1194.67 791.011 1200.98 792.459C1214.21 761.05 1245.29 739 1281.51 739C1314.65 739 1343.48 757.453 1358.28 784.643C1369.61 779.273 1382.28 776.269 1395.65 776.269C1443.89 776.269 1483 815.377 1483 863.62C1483 911.862 1443.89 950.97 1395.65 950.97C1384.03 950.97 1372.94 948.701 1362.8 944.581C1350.02 976.969 1318.44 999.886 1281.51 999.886C1251.04 999.886 1224.2 984.278 1208.58 960.619Z" fill="url(#paint24_linear_1452_6948)"/>
<defs>
<linearGradient id="paint0_linear_1452_6948" x1="1048.57" y1="106.04" x2="1051.12" y2="324.932" gradientUnits="userSpaceOnUse">
<stop stop-color="#F5C259"/>
<stop offset="1" stop-color="#FFF1DD" stop-opacity="0"/>
</linearGradient>
<linearGradient id="paint1_linear_1452_6948" x1="977" y1="147" x2="976.527" y2="273.305" gradientUnits="userSpaceOnUse">
<stop stop-color="white"/>
<stop offset="1" stop-color="white" stop-opacity="0"/>
</linearGradient>
<linearGradient id="paint2_linear_1452_6948" x1="1371.5" y1="178" x2="1370.83" y2="356.266" gradientUnits="userSpaceOnUse">
<stop stop-color="white"/>
<stop offset="1" stop-color="white" stop-opacity="0"/>
</linearGradient>
<linearGradient id="paint3_linear_1452_6948" x1="58.5" y1="229" x2="58" y2="362.5" gradientUnits="userSpaceOnUse">
<stop stop-color="white"/>
<stop offset="1" stop-color="white" stop-opacity="0"/>
</linearGradient>
<linearGradient id="paint4_linear_1452_6948" x1="822.483" y1="419.144" x2="832.557" y2="552.264" gradientUnits="userSpaceOnUse">
<stop stop-color="white"/>
<stop offset="1" stop-color="white" stop-opacity="0"/>
</linearGradient>
<linearGradient id="paint5_linear_1452_6948" x1="110" y1="478" x2="110" y2="622" gradientUnits="userSpaceOnUse">
<stop stop-color="white"/>
<stop offset="1" stop-color="white" stop-opacity="0"/>
</linearGradient>
<linearGradient id="paint6_linear_1452_6948" x1="1415.5" y1="0" x2="1415" y2="133.5" gradientUnits="userSpaceOnUse">
<stop stop-color="white"/>
<stop offset="1" stop-color="white" stop-opacity="0"/>
</linearGradient>
<linearGradient id="paint7_linear_1452_6948" x1="1199.5" y1="536" x2="1199.4" y2="793" gradientUnits="userSpaceOnUse">
<stop stop-color="#C18F6B"/>
<stop offset="1" stop-color="#C18F6B" stop-opacity="0.46"/>
</linearGradient>
<linearGradient id="paint8_linear_1452_6948" x1="999.593" y1="401.49" x2="1018.41" y2="557.483" gradientUnits="userSpaceOnUse">
<stop stop-color="#4CA98F"/>
<stop offset="1" stop-color="#4CA98F" stop-opacity="0"/>
</linearGradient>
<linearGradient id="paint9_linear_1452_6948" x1="1084.04" y1="324.334" x2="1028.53" y2="471.328" gradientUnits="userSpaceOnUse">
<stop stop-color="#4CA98F"/>
<stop offset="1" stop-color="#4CA98F" stop-opacity="0"/>
</linearGradient>
<linearGradient id="paint10_linear_1452_6948" x1="1181.32" y1="296.721" x2="1070.04" y2="407.653" gradientUnits="userSpaceOnUse">
<stop stop-color="#4CA98F"/>
<stop offset="1" stop-color="#4CA98F" stop-opacity="0"/>
</linearGradient>
<linearGradient id="paint11_linear_1452_6948" x1="1310.69" y1="324.334" x2="1366.19" y2="471.328" gradientUnits="userSpaceOnUse">
<stop stop-color="#4CA98F"/>
<stop offset="1" stop-color="#4CA98F" stop-opacity="0"/>
</linearGradient>
<linearGradient id="paint12_linear_1452_6948" x1="1395.11" y1="400.036" x2="1376.29" y2="556.028" gradientUnits="userSpaceOnUse">
<stop stop-color="#4CA98F"/>
<stop offset="1" stop-color="#4CA98F" stop-opacity="0"/>
</linearGradient>
<linearGradient id="paint13_linear_1452_6948" x1="1000.13" y1="768.834" x2="1000.58" y2="889.948" gradientUnits="userSpaceOnUse">
<stop stop-color="#C18F6B"/>
<stop offset="1" stop-color="white" stop-opacity="0.52"/>
</linearGradient>
<linearGradient id="paint14_linear_1452_6948" x1="853.617" y1="693.499" x2="867.661" y2="809.91" gradientUnits="userSpaceOnUse">
<stop stop-color="#4CA98F"/>
<stop offset="1" stop-color="#4CA98F" stop-opacity="0"/>
</linearGradient>
<linearGradient id="paint15_linear_1452_6948" x1="916.633" y1="635.919" x2="875.214" y2="745.615" gradientUnits="userSpaceOnUse">
<stop stop-color="#4CA98F"/>
<stop offset="1" stop-color="#4CA98F" stop-opacity="0"/>
</linearGradient>
<linearGradient id="paint16_linear_1452_6948" x1="989.231" y1="615.313" x2="906.192" y2="698.097" gradientUnits="userSpaceOnUse">
<stop stop-color="#4CA98F"/>
<stop offset="1" stop-color="#4CA98F" stop-opacity="0"/>
</linearGradient>
<linearGradient id="paint17_linear_1452_6948" x1="1012.56" y1="615.313" x2="1095.6" y2="698.097" gradientUnits="userSpaceOnUse">
<stop stop-color="#4CA98F"/>
<stop offset="1" stop-color="#4CA98F" stop-opacity="0"/>
</linearGradient>
<linearGradient id="paint18_linear_1452_6948" x1="1085.78" y1="635.919" x2="1127.2" y2="745.615" gradientUnits="userSpaceOnUse">
<stop stop-color="#4CA98F"/>
<stop offset="1" stop-color="#4CA98F" stop-opacity="0"/>
</linearGradient>
<linearGradient id="paint19_linear_1452_6948" x1="1148.77" y1="692.413" x2="1134.73" y2="808.824" gradientUnits="userSpaceOnUse">
<stop stop-color="#4CA98F"/>
<stop offset="1" stop-color="#4CA98F" stop-opacity="0"/>
</linearGradient>
<linearGradient id="paint20_linear_1452_6948" x1="1264.25" y1="247.344" x2="1136.41" y2="118.498" gradientUnits="userSpaceOnUse">
<stop stop-color="#E35E77"/>
<stop offset="1" stop-color="#E35E77" stop-opacity="0"/>
</linearGradient>
<linearGradient id="paint21_linear_1452_6948" x1="1212.58" y1="296.721" x2="1323.85" y2="407.653" gradientUnits="userSpaceOnUse">
<stop stop-color="#4CA98F"/>
<stop offset="1" stop-color="#4CA98F" stop-opacity="0"/>
</linearGradient>
<linearGradient id="paint22_linear_1452_6948" x1="963.264" y1="648.07" x2="870.397" y2="558.555" gradientUnits="userSpaceOnUse">
<stop stop-color="#9179CC"/>
<stop offset="0.68437" stop-color="#E3D7FF"/>
<stop offset="1" stop-color="#9179CC" stop-opacity="0"/>
</linearGradient>
<linearGradient id="paint23_linear_1452_6948" x1="942" y1="819" x2="942" y2="963" gradientUnits="userSpaceOnUse">
<stop stop-color="white"/>
<stop offset="1" stop-color="white" stop-opacity="0"/>
</linearGradient>
<linearGradient id="paint24_linear_1452_6948" x1="1288.5" y1="739" x2="1288.5" y2="946.467" gradientUnits="userSpaceOnUse">
<stop stop-color="white"/>
<stop offset="1" stop-color="white" stop-opacity="0"/>
</linearGradient>
</defs>
</svg>
