<svg width="325" height="1001" viewBox="0 0 325 1001" fill="none" xmlns="http://www.w3.org/2000/svg">
<g clip-path="url(#clip0_2044_2653)">
<path fill-rule="evenodd" clip-rule="evenodd" d="M24.188 245.143C20.5099 246.348 16.5811 247 12.5 247C-8.21068 247 -25 230.211 -25 209.5C-25 188.789 -8.21068 172 12.5 172C15.3975 172 18.2182 172.329 20.927 172.951C26.6085 159.466 39.9488 150 55.5 150C69.7263 150 82.1023 157.922 88.4575 169.595C93.3212 167.29 98.76 166 104.5 166C125.211 166 142 182.789 142 203.5C142 224.211 125.211 241 104.5 241C99.5112 241 94.75 240.026 90.3961 238.257C84.91 252.162 71.3539 262 55.5 262C42.4162 262 30.8975 255.299 24.188 245.143Z" fill="url(#paint0_linear_2044_2653)"/>
</g>
<defs>
<linearGradient id="paint0_linear_2044_2653" x1="58.5" y1="150" x2="58" y2="283.5" gradientUnits="userSpaceOnUse">
<stop stop-color="white"/>
<stop offset="1" stop-color="white" stop-opacity="0"/>
</linearGradient>
<clipPath id="clip0_2044_2653">
<rect width="325" height="1001" fill="white"/>
</clipPath>
</defs>
</svg>
