<svg width="325" height="1001" viewBox="0 0 325 1001" fill="none" xmlns="http://www.w3.org/2000/svg">
<g clip-path="url(#clip0_2042_2366)">
<path fill-rule="evenodd" clip-rule="evenodd" d="M24.188 324.143C20.5099 325.348 16.5811 326 12.5 326C-8.21068 326 -25 309.211 -25 288.5C-25 267.789 -8.21068 251 12.5 251C15.3975 251 18.2182 251.329 20.927 251.951C26.6085 238.466 39.9488 229 55.5 229C69.7263 229 82.1023 236.922 88.4575 248.595C93.3212 246.29 98.76 245 104.5 245C125.211 245 142 261.789 142 282.5C142 303.211 125.211 320 104.5 320C99.5112 320 94.75 319.026 90.3961 317.257C84.91 331.162 71.3539 341 55.5 341C42.4162 341 30.8975 334.299 24.188 324.143Z" fill="url(#paint0_linear_2042_2366)"/>
<path fill-rule="evenodd" clip-rule="evenodd" d="M54.5258 631.824C48.5791 633.773 42.227 634.827 35.6287 634.827C2.14441 634.827 -25 607.682 -25 574.198C-25 540.714 2.14441 513.569 35.6287 513.569C40.3132 513.569 44.8736 514.101 49.253 515.106C58.4387 493.305 80.0069 478 105.15 478C128.15 478 148.159 490.808 158.434 509.681C166.298 505.953 175.091 503.868 184.371 503.868C217.856 503.868 245 531.013 245 564.497C245 597.981 217.856 625.126 184.371 625.126C176.306 625.126 168.608 623.551 161.569 620.692C152.699 643.172 130.782 659.078 105.15 659.078C83.9965 659.078 65.3734 648.245 54.5258 631.824Z" fill="url(#paint1_linear_2042_2366)"/>
</g>
<defs>
<linearGradient id="paint0_linear_2042_2366" x1="58.5" y1="229" x2="58" y2="362.5" gradientUnits="userSpaceOnUse">
<stop stop-color="white"/>
<stop offset="1" stop-color="white" stop-opacity="0"/>
</linearGradient>
<linearGradient id="paint1_linear_2042_2366" x1="110" y1="478" x2="110" y2="622" gradientUnits="userSpaceOnUse">
<stop stop-color="white"/>
<stop offset="1" stop-color="white" stop-opacity="0"/>
</linearGradient>
<clipPath id="clip0_2042_2366">
<rect width="325" height="1001" fill="white"/>
</clipPath>
</defs>
</svg>
