<svg width="379" height="800" viewBox="0 0 379 800" fill="none" xmlns="http://www.w3.org/2000/svg">
<g clip-path="url(#clip0_2044_2578)">
<path d="M368.237 53.2955C368.237 82.7298 344.376 106.591 314.942 106.591C285.507 106.591 261.646 82.7298 261.646 53.2955C261.646 23.8612 285.507 0 314.942 0C344.376 0 368.237 23.8612 368.237 53.2955Z" fill="white"/>
<path d="M368.237 53.2955C368.237 82.7298 344.376 106.591 314.942 106.591C285.507 106.591 261.646 82.7298 261.646 53.2955C261.646 23.8612 285.507 0 314.942 0C344.376 0 368.237 23.8612 368.237 53.2955Z" fill="url(#paint0_linear_2044_2578)"/>
<path fill-rule="evenodd" clip-rule="evenodd" d="M244.43 75.3117C242.585 75.9164 240.614 76.2435 238.566 76.2435C228.175 76.2435 219.751 67.8199 219.751 57.4288C219.751 47.0378 228.175 38.6142 238.566 38.6142C240.02 38.6142 241.435 38.779 242.794 39.091C245.644 32.3255 252.337 27.5762 260.14 27.5762C267.278 27.5762 273.487 31.5507 276.675 37.4074C279.116 36.2506 281.845 35.6034 284.725 35.6034C295.116 35.6034 303.539 44.027 303.539 54.4181C303.539 64.8091 295.116 73.2327 284.725 73.2327C282.222 73.2327 279.833 72.7439 277.648 71.8565C274.896 78.8327 268.094 83.7689 260.14 83.7689C253.576 83.7689 247.797 80.4073 244.43 75.3117Z" fill="url(#paint1_linear_2044_2578)"/>
<path fill-rule="evenodd" clip-rule="evenodd" d="M96.2373 502.913C98.3618 503.38 100.595 503.524 102.877 503.294C114.457 502.128 122.9 491.795 121.734 480.215C120.568 468.635 110.235 460.193 98.655 461.359C97.0348 461.522 95.4759 461.865 93.9962 462.365C90.0603 455.145 82.0685 450.604 73.3733 451.479C65.4191 452.28 58.9454 457.406 56.049 464.29C53.1998 463.275 50.0862 462.86 46.8767 463.183C35.2967 464.349 26.8544 474.682 28.0203 486.262C29.1863 497.842 39.5189 506.284 51.0989 505.118C53.8883 504.837 56.4956 504.025 58.8304 502.791C62.6806 510.256 70.8142 514.994 79.6787 514.102C86.9943 513.365 93.0576 508.97 96.2373 502.913Z" fill="url(#paint2_linear_2044_2578)"/>
<rect x="275.188" y="517.239" width="18.5447" height="144.424" fill="white"/>
<rect x="275.188" y="517.239" width="18.5447" height="144.424" fill="url(#paint3_linear_2044_2578)"/>
<path d="M283.314 517.173C256.298 486.614 173.115 470.371 76.0449 491.45C114.624 440.503 211.57 403.576 283.314 517.173Z" fill="white"/>
<path d="M283.314 517.173C256.298 486.614 173.115 470.371 76.0449 491.45C114.624 440.503 211.57 403.576 283.314 517.173Z" fill="url(#paint4_linear_2044_2578)"/>
<path d="M283.198 516.696C273.389 477.103 207.165 424.211 111.359 397.98C169.135 370.668 272.164 382.794 283.198 516.696Z" fill="white"/>
<path d="M283.198 516.696C273.389 477.103 207.165 424.211 111.359 397.98C169.135 370.668 272.164 382.794 283.198 516.696Z" fill="url(#paint5_linear_2044_2578)"/>
<path d="M283.264 516.887C290.689 476.78 252.233 401.253 175.823 337.782C239.722 336.781 328.537 390.389 283.264 516.887Z" fill="white"/>
<path d="M283.264 516.887C290.689 476.78 252.233 401.253 175.823 337.782C239.722 336.781 328.537 390.389 283.264 516.887Z" fill="url(#paint6_linear_2044_2578)"/>
<path d="M283.319 516.696C293.127 477.103 359.352 424.211 455.158 397.98C397.382 370.668 294.353 382.794 283.319 516.696Z" fill="white"/>
<path d="M283.319 516.696C293.127 477.103 359.352 424.211 455.158 397.98C397.382 370.668 294.353 382.794 283.319 516.696Z" fill="url(#paint7_linear_2044_2578)"/>
<path d="M283.188 516.355C310.204 485.796 393.387 469.553 490.457 490.632C451.877 439.685 354.931 402.758 283.188 516.355Z" fill="white"/>
<path d="M283.188 516.355C310.204 485.796 393.387 469.553 490.457 490.632C451.877 439.685 354.931 402.758 283.188 516.355Z" fill="url(#paint8_linear_2044_2578)"/>
<g style="mix-blend-mode:color-burn">
<ellipse cx="278.433" cy="405.433" rx="18.8516" ry="4.86494" fill="#DEDEDE"/>
</g>
<rect x="278.578" y="313" width="67.2859" height="67.2859" rx="6.08118" transform="rotate(45 278.578 313)" fill="white"/>
<rect x="278.578" y="313" width="67.2859" height="67.2859" rx="6.08118" transform="rotate(45 278.578 313)" fill="url(#paint9_linear_2044_2578)"/>
<g style="mix-blend-mode:soft-light">
<path d="M318.501 353C293.701 369 277.985 393.4 273.485 403.066C275.99 405.897 278.242 405.699 279.516 405.566C289.016 382.566 312.834 365.333 324.501 359L318.501 353Z" fill="#707070"/>
</g>
<ellipse cx="268.835" cy="356.785" rx="1.52062" ry="3.04123" fill="white"/>
<ellipse cx="283.43" cy="356.785" rx="1.52062" ry="3.04123" fill="white"/>
<path d="M264.344 361.687L262.694 363.5" stroke="white" stroke-width="0.608118" stroke-linecap="round"/>
<path d="M266.471 361.649L264.821 363.463" stroke="white" stroke-width="0.608118" stroke-linecap="round"/>
<path d="M287.625 361.687L289.275 363.5" stroke="white" stroke-width="0.608118" stroke-linecap="round"/>
<path d="M285.498 361.649L287.148 363.463" stroke="white" stroke-width="0.608118" stroke-linecap="round"/>
<path d="M273.568 361.649C274.277 362.359 276.305 363.353 278.738 361.649" stroke="white" stroke-width="1.21624" stroke-linecap="round"/>
<path d="M282.785 516.887C275.36 476.78 313.816 401.253 390.226 337.782C326.327 336.781 237.512 390.389 282.785 516.887Z" fill="white"/>
<path d="M282.785 516.887C275.36 476.78 313.816 401.253 390.226 337.782C326.327 336.781 237.512 390.389 282.785 516.887Z" fill="url(#paint10_linear_2044_2578)"/>
<path fill-rule="evenodd" clip-rule="evenodd" d="M314.102 771.269C308.486 773.109 302.487 774.105 296.256 774.105C264.634 774.105 239 748.47 239 716.848C239 685.226 264.634 659.591 296.256 659.591C300.68 659.591 304.987 660.093 309.123 661.042C317.798 640.453 338.166 626 361.911 626C383.632 626 402.529 638.096 412.232 655.919C419.658 652.399 427.962 650.43 436.727 650.43C468.349 650.43 493.984 676.065 493.984 707.687C493.984 739.309 468.349 764.944 436.727 764.944C429.11 764.944 421.84 763.456 415.192 760.756C406.816 781.986 386.118 797.008 361.911 797.008C341.934 797.008 324.346 786.777 314.102 771.269Z" fill="url(#paint11_linear_2044_2578)"/>
<path d="M173.067 662.107C152.906 639.301 90.8301 627.18 18.3907 642.911C47.1811 604.891 119.528 577.334 173.067 662.107Z" fill="white"/>
<path d="M173.067 662.107C152.906 639.301 90.8301 627.18 18.3907 642.911C47.1811 604.891 119.528 577.334 173.067 662.107Z" fill="url(#paint12_linear_2044_2578)"/>
<path d="M172.981 661.751C165.661 632.205 116.241 592.734 44.7441 573.158C87.8601 552.777 164.747 561.826 172.981 661.751Z" fill="white"/>
<path d="M172.981 661.751C165.661 632.205 116.241 592.734 44.7441 573.158C87.8601 552.777 164.747 561.826 172.981 661.751Z" fill="url(#paint13_linear_2044_2578)"/>
<path d="M173.03 661.893C178.571 631.963 149.873 575.6 92.8515 528.235C140.536 527.487 206.816 567.493 173.03 661.893Z" fill="white"/>
<path d="M173.03 661.893C178.571 631.963 149.873 575.6 92.8515 528.235C140.536 527.487 206.816 567.493 173.03 661.893Z" fill="url(#paint14_linear_2044_2578)"/>
<path d="M172.673 661.893C167.131 631.963 195.83 575.6 252.851 528.235C205.167 527.487 138.887 567.493 172.673 661.893Z" fill="white"/>
<path d="M172.673 661.893C167.131 631.963 195.83 575.6 252.851 528.235C205.167 527.487 138.887 567.493 172.673 661.893Z" fill="url(#paint15_linear_2044_2578)"/>
<path d="M173.071 661.751C180.391 632.205 229.811 592.734 301.308 573.158C258.192 552.777 181.305 561.826 173.071 661.751Z" fill="white"/>
<path d="M173.071 661.751C180.391 632.205 229.811 592.734 301.308 573.158C258.192 552.777 181.305 561.826 173.071 661.751Z" fill="url(#paint16_linear_2044_2578)"/>
<path d="M172.974 661.497C193.135 638.692 255.211 626.57 327.65 642.301C298.86 604.282 226.513 576.724 172.974 661.497Z" fill="white"/>
<path d="M172.974 661.497C193.135 638.692 255.211 626.57 327.65 642.301C298.86 604.282 226.513 576.724 172.974 661.497Z" fill="url(#paint17_linear_2044_2578)"/>
<g style="mix-blend-mode:color-burn">
<ellipse cx="106.247" cy="622.891" rx="17.8278" ry="4.60072" transform="rotate(4.45016 106.247 622.891)" fill="#BDBDBD"/>
</g>
<rect x="114.046" y="535.991" width="63.6315" height="63.6315" rx="5.7509" transform="rotate(50.4372 114.046 535.991)" fill="white"/>
<rect x="114.046" y="535.991" width="63.6315" height="63.6315" rx="5.7509" transform="rotate(50.4372 114.046 535.991)" fill="url(#paint18_linear_2044_2578)"/>
<path d="M97.1953 580.061L95.4794 581.621" stroke="white" stroke-width="0.57509" stroke-linecap="round"/>
<path d="M99.2017 580.216L97.4858 581.776" stroke="white" stroke-width="0.57509" stroke-linecap="round"/>
<path d="M119.972 582.228L121.363 584.083" stroke="white" stroke-width="0.57509" stroke-linecap="round"/>
<path d="M117.972 582.002L119.363 583.858" stroke="white" stroke-width="0.57509" stroke-linecap="round"/>
<path d="M106.115 581.451C106.72 582.183 108.539 583.3 110.983 581.914" stroke="white" stroke-width="1.15018" stroke-linecap="round"/>
<path d="M99.3799 573.301L102.341 575.261C102.762 575.54 102.645 576.187 102.153 576.301L99.0256 577.023" stroke="white" stroke-width="1.15018" stroke-linecap="round"/>
<path d="M118.56 575.126L115.282 576.493C114.816 576.687 114.809 577.345 115.271 577.549L118.205 578.848" stroke="white" stroke-width="1.15018" stroke-linecap="round"/>
<rect x="162" y="662" width="22.4784" height="34.2796" fill="white"/>
<rect x="162" y="662" width="22.4784" height="34.2796" fill="url(#paint19_linear_2044_2578)"/>
<path fill-rule="evenodd" clip-rule="evenodd" d="M107.128 773.829C103.23 775.106 99.0664 775.797 94.7413 775.797C72.7928 775.797 55 758.004 55 736.056C55 714.107 72.7928 696.315 94.7413 696.315C97.8121 696.315 100.802 696.663 103.672 697.322C109.694 683.032 123.831 673 140.312 673C155.388 673 168.504 681.395 175.239 693.766C180.393 691.323 186.157 689.956 192.24 689.956C214.188 689.956 231.981 707.749 231.981 729.697C231.981 751.646 214.188 769.439 192.24 769.439C186.953 769.439 181.907 768.406 177.293 766.532C171.479 781.268 157.113 791.694 140.312 791.694C126.446 791.694 114.239 784.593 107.128 773.829Z" fill="url(#paint20_linear_2044_2578)"/>
</g>
<defs>
<linearGradient id="paint0_linear_2044_2578" x1="299.599" y1="5.85443" x2="300.951" y2="121.934" gradientUnits="userSpaceOnUse">
<stop stop-color="#F5C259"/>
<stop offset="1" stop-color="#FFF1DD" stop-opacity="0"/>
</linearGradient>
<linearGradient id="paint1_linear_2044_2578" x1="261.645" y1="27.5762" x2="261.395" y2="94.5559" gradientUnits="userSpaceOnUse">
<stop stop-color="white"/>
<stop offset="1" stop-color="white" stop-opacity="0"/>
</linearGradient>
<linearGradient id="paint2_linear_2044_2578" x1="71.6963" y1="451.648" x2="79.4914" y2="526.264" gradientUnits="userSpaceOnUse">
<stop stop-color="white"/>
<stop offset="1" stop-color="white" stop-opacity="0"/>
</linearGradient>
<linearGradient id="paint3_linear_2044_2578" x1="284.46" y1="517.239" x2="284.401" y2="661.663" gradientUnits="userSpaceOnUse">
<stop stop-color="#C18F6B"/>
<stop offset="1" stop-color="#C18F6B" stop-opacity="0.46"/>
</linearGradient>
<linearGradient id="paint4_linear_2044_2578" x1="172.12" y1="441.65" x2="182.695" y2="529.312" gradientUnits="userSpaceOnUse">
<stop stop-color="#4CA98F"/>
<stop offset="1" stop-color="#4CA98F" stop-opacity="0"/>
</linearGradient>
<linearGradient id="paint5_linear_2044_2578" x1="219.573" y1="398.291" x2="188.383" y2="480.896" gradientUnits="userSpaceOnUse">
<stop stop-color="#4CA98F"/>
<stop offset="1" stop-color="#4CA98F" stop-opacity="0"/>
</linearGradient>
<linearGradient id="paint6_linear_2044_2578" x1="274.242" y1="382.774" x2="211.71" y2="445.113" gradientUnits="userSpaceOnUse">
<stop stop-color="#4CA98F"/>
<stop offset="1" stop-color="#4CA98F" stop-opacity="0"/>
</linearGradient>
<linearGradient id="paint7_linear_2044_2578" x1="346.944" y1="398.291" x2="378.134" y2="480.896" gradientUnits="userSpaceOnUse">
<stop stop-color="#4CA98F"/>
<stop offset="1" stop-color="#4CA98F" stop-opacity="0"/>
</linearGradient>
<linearGradient id="paint8_linear_2044_2578" x1="394.382" y1="440.833" x2="383.806" y2="528.494" gradientUnits="userSpaceOnUse">
<stop stop-color="#4CA98F"/>
<stop offset="1" stop-color="#4CA98F" stop-opacity="0"/>
</linearGradient>
<linearGradient id="paint9_linear_2044_2578" x1="319.326" y1="353.953" x2="241.588" y2="275.599" gradientUnits="userSpaceOnUse">
<stop stop-color="#E35E77"/>
<stop offset="1" stop-color="#E35E77" stop-opacity="0"/>
</linearGradient>
<linearGradient id="paint10_linear_2044_2578" x1="291.807" y1="382.774" x2="354.339" y2="445.113" gradientUnits="userSpaceOnUse">
<stop stop-color="#4CA98F"/>
<stop offset="1" stop-color="#4CA98F" stop-opacity="0"/>
</linearGradient>
<linearGradient id="paint11_linear_2044_2578" x1="366.492" y1="626" x2="366.492" y2="761.992" gradientUnits="userSpaceOnUse">
<stop stop-color="white"/>
<stop offset="1" stop-color="white" stop-opacity="0"/>
</linearGradient>
<linearGradient id="paint12_linear_2044_2578" x1="90.0875" y1="605.747" x2="97.9797" y2="671.165" gradientUnits="userSpaceOnUse">
<stop stop-color="#4CA98F"/>
<stop offset="1" stop-color="#4CA98F" stop-opacity="0"/>
</linearGradient>
<linearGradient id="paint13_linear_2044_2578" x1="125.5" y1="573.39" x2="102.224" y2="635.035" gradientUnits="userSpaceOnUse">
<stop stop-color="#4CA98F"/>
<stop offset="1" stop-color="#4CA98F" stop-opacity="0"/>
</linearGradient>
<linearGradient id="paint14_linear_2044_2578" x1="166.297" y1="561.81" x2="119.633" y2="608.331" gradientUnits="userSpaceOnUse">
<stop stop-color="#4CA98F"/>
<stop offset="1" stop-color="#4CA98F" stop-opacity="0"/>
</linearGradient>
<linearGradient id="paint15_linear_2044_2578" x1="179.406" y1="561.81" x2="226.07" y2="608.331" gradientUnits="userSpaceOnUse">
<stop stop-color="#4CA98F"/>
<stop offset="1" stop-color="#4CA98F" stop-opacity="0"/>
</linearGradient>
<linearGradient id="paint16_linear_2044_2578" x1="220.552" y1="573.39" x2="243.828" y2="635.035" gradientUnits="userSpaceOnUse">
<stop stop-color="#4CA98F"/>
<stop offset="1" stop-color="#4CA98F" stop-opacity="0"/>
</linearGradient>
<linearGradient id="paint17_linear_2044_2578" x1="255.953" y1="605.138" x2="248.061" y2="670.556" gradientUnits="userSpaceOnUse">
<stop stop-color="#4CA98F"/>
<stop offset="1" stop-color="#4CA98F" stop-opacity="0"/>
</linearGradient>
<linearGradient id="paint18_linear_2044_2578" x1="148.107" y1="570.247" x2="88.5547" y2="512.844" gradientUnits="userSpaceOnUse">
<stop stop-color="#9179CC"/>
<stop offset="0.68437" stop-color="#E3D7FF"/>
<stop offset="1" stop-color="#9179CC" stop-opacity="0"/>
</linearGradient>
<linearGradient id="paint19_linear_2044_2578" x1="172.751" y1="648.42" x2="173.004" y2="716.481" gradientUnits="userSpaceOnUse">
<stop stop-color="#C18F6B"/>
<stop offset="1" stop-color="white" stop-opacity="0.52"/>
</linearGradient>
<linearGradient id="paint20_linear_2044_2578" x1="143.491" y1="673" x2="143.491" y2="767.39" gradientUnits="userSpaceOnUse">
<stop stop-color="white"/>
<stop offset="1" stop-color="white" stop-opacity="0"/>
</linearGradient>
<clipPath id="clip0_2044_2578">
<rect width="379" height="800" fill="white"/>
</clipPath>
</defs>
</svg>
