<svg width="766" height="1001" viewBox="0 0 766 1001" fill="none" xmlns="http://www.w3.org/2000/svg">
<g clip-path="url(#clip0_2042_2303)">
<path d="M504 195.5C504 251.005 459 296 403.5 296C348 296 303 251.005 303 195.5C303 139.995 348 95 403.5 95C459 95 504 139.995 504 195.5Z" fill="white"/>
<path d="M504 195.5C504 251.005 459 296 403.5 296C348 296 303 251.005 303 195.5C303 139.995 348 95 403.5 95C459 95 504 139.995 504 195.5Z" fill="url(#paint0_linear_2042_2303)"/>
<path fill-rule="evenodd" clip-rule="evenodd" d="M270.537 237.015C267.057 238.156 263.34 238.773 259.479 238.773C239.885 238.773 224 222.888 224 203.293C224 183.699 239.885 167.814 259.479 167.814C262.22 167.814 264.889 168.125 267.452 168.714C272.827 155.956 285.448 147 300.162 147C313.621 147 325.33 154.495 331.34 165.539C335.94 163.358 341.09 162.138 346.52 162.138C366.12 162.138 382 178.022 382 197.617C382 217.211 366.12 233.096 346.52 233.096C341.8 233.096 337.3 232.174 333.18 230.501C327.99 243.656 315.161 252.964 300.162 252.964C287.783 252.964 276.885 246.625 270.537 237.015Z" fill="url(#paint1_linear_2042_2303)"/>
<path fill-rule="evenodd" clip-rule="evenodd" d="M651.68 305.047C646.77 306.657 641.52 307.527 636.07 307.527C608.42 307.527 586 285.108 586 257.453C586 229.797 608.42 207.378 636.07 207.378C639.94 207.378 643.71 207.817 647.33 208.647C654.91 190.641 672.73 178 693.49 178C712.49 178 729.02 188.578 737.5 204.166C744 201.087 751.26 199.365 758.93 199.365C786.58 199.365 809 221.784 809 249.44C809 277.096 786.58 299.515 758.93 299.515C752.26 299.515 745.91 298.214 740.09 295.852C732.77 314.419 714.66 327.557 693.49 327.557C676.02 327.557 660.64 318.61 651.68 305.047Z" fill="url(#paint2_linear_2042_2303)"/>
<path fill-rule="evenodd" clip-rule="evenodd" d="M189.531 511.581C193.286 512.519 197.252 512.888 201.322 512.595C221.979 511.11 237.521 493.159 236.036 472.502C234.551 451.845 216.6 436.303 195.943 437.788C193.053 437.996 190.263 438.526 187.606 439.341C180.972 426.298 166.987 417.814 151.476 418.929C137.286 419.949 125.51 428.739 120.008 440.838C114.992 438.887 109.475 437.991 103.749 438.402C83.092 439.888 67.55 457.838 69.036 478.495C70.521 499.153 88.471 514.695 109.129 513.209C114.105 512.851 118.784 511.538 123 509.462C129.469 522.937 143.696 531.777 159.509 530.64C172.559 529.702 183.567 522.192 189.531 511.581Z" fill="url(#paint3_linear_2042_2303)"/>
<path fill-rule="evenodd" clip-rule="evenodd" d="M707.19 95.1427C703.51 96.3481 699.58 97 695.5 97C674.79 97 658 80.2107 658 59.5C658 38.7893 674.79 22 695.5 22C698.4 22 701.22 22.3286 703.93 22.9506C709.61 9.46613 722.95 0 738.5 0C752.73 0 765.1 7.92189 771.46 19.595C776.32 17.2897 781.76 16 787.5 16C808.21 16 825 32.7893 825 53.5C825 74.2107 808.21 91 787.5 91C782.51 91 777.75 90.0258 773.4 88.2573C767.91 102.162 754.35 112 738.5 112C725.42 112 713.9 105.299 707.19 95.1427Z" fill="url(#paint4_linear_2042_2303)"/>
<path d="M542 536H509V793H542V536Z" fill="white"/>
<path d="M542 536H509V793H542V536Z" fill="url(#paint5_linear_2042_2303)"/>
<path d="M523.46 535.882C475.39 481.502 327.36 452.597 154.629 490.109C223.281 399.449 395.79 333.738 523.46 535.882Z" fill="white"/>
<path d="M523.46 535.882C475.39 481.502 327.36 452.597 154.629 490.109C223.281 399.449 395.79 333.738 523.46 535.882Z" fill="url(#paint6_linear_2042_2303)"/>
<path d="M523.25 535.033C505.8 464.579 387.96 370.459 217.47 323.78C320.282 275.179 503.62 296.757 523.25 535.033Z" fill="white"/>
<path d="M523.25 535.033C505.8 464.579 387.96 370.459 217.47 323.78C320.282 275.179 503.62 296.757 523.25 535.033Z" fill="url(#paint7_linear_2042_2303)"/>
<path d="M523.37 535.373C536.59 464.003 468.15 329.603 332.18 216.659C445.89 214.876 603.94 310.272 523.37 535.373Z" fill="white"/>
<path d="M523.37 535.373C536.59 464.003 468.15 329.603 332.18 216.659C445.89 214.876 603.94 310.272 523.37 535.373Z" fill="url(#paint8_linear_2042_2303)"/>
<path d="M523.47 535.033C540.92 464.579 658.77 370.459 829.26 323.78C726.44 275.179 543.1 296.757 523.47 535.033Z" fill="white"/>
<path d="M523.47 535.033C540.92 464.579 658.77 370.459 829.26 323.78C726.44 275.179 543.1 296.757 523.47 535.033Z" fill="url(#paint9_linear_2042_2303)"/>
<path d="M523.24 534.428C571.31 480.048 719.33 451.143 892.07 488.654C823.42 397.995 650.9 332.283 523.24 534.428Z" fill="white"/>
<path d="M523.24 534.428C571.31 480.048 719.33 451.143 892.07 488.654C823.42 397.995 650.9 332.283 523.24 534.428Z" fill="url(#paint10_linear_2042_2303)"/>
<path d="M347 793H307V854H347V793Z" fill="white"/>
<path d="M347 793H307V854H347V793Z" fill="url(#paint11_linear_2042_2303)"/>
<path d="M327.28 793.79C291.402 753.208 180.939 731.638 52.0339 759.631C103.266 691.975 232.006 642.937 327.28 793.79Z" fill="white"/>
<path d="M327.28 793.79C291.402 753.208 180.939 731.638 52.0339 759.631C103.266 691.975 232.006 642.937 327.28 793.79Z" fill="url(#paint12_linear_2042_2303)"/>
<path d="M327.12 793.156C314.099 740.579 226.155 670.341 98.929 635.506C175.653 599.237 312.472 615.34 327.12 793.156Z" fill="white"/>
<path d="M327.12 793.156C314.099 740.579 226.155 670.341 98.929 635.506C175.653 599.237 312.472 615.34 327.12 793.156Z" fill="url(#paint13_linear_2042_2303)"/>
<path d="M327.21 793.41C337.07 740.149 286.004 639.852 184.535 555.566C269.389 554.236 387.33 625.426 327.21 793.41Z" fill="white"/>
<path d="M327.21 793.41C337.07 740.149 286.004 639.852 184.535 555.566C269.389 554.236 387.33 625.426 327.21 793.41Z" fill="url(#paint14_linear_2042_2303)"/>
<path d="M326.58 793.41C316.715 740.149 367.78 639.852 469.25 555.566C384.4 554.236 266.455 625.426 326.58 793.41Z" fill="white"/>
<path d="M326.58 793.41C316.715 740.149 367.78 639.852 469.25 555.566C384.4 554.236 266.455 625.426 326.58 793.41Z" fill="url(#paint15_linear_2042_2303)"/>
<path d="M327.29 793.156C340.31 740.579 428.25 670.341 555.48 635.506C478.76 599.237 341.94 615.34 327.29 793.156Z" fill="white"/>
<path d="M327.29 793.156C340.31 740.579 428.25 670.341 555.48 635.506C478.76 599.237 341.94 615.34 327.29 793.156Z" fill="url(#paint16_linear_2042_2303)"/>
<path d="M327.11 792.704C362.99 752.122 473.45 730.552 602.36 758.545C551.12 690.889 422.38 641.851 327.11 792.704Z" fill="white"/>
<path d="M327.11 792.704C362.99 752.122 473.45 730.552 602.36 758.545C551.12 690.889 422.38 641.851 327.11 792.704Z" fill="url(#paint17_linear_2042_2303)"/>
<g style="mix-blend-mode:color-burn">
<path d="M523 340C540.121 340 554 336.418 554 332C554 327.582 540.121 324 523 324C505.879 324 492 327.582 492 332C492 336.418 505.879 340 523 340Z" fill="#DEDEDE"/>
</g>
<path d="M594.407 251.167L530.311 187.071C526.406 183.166 520.074 183.166 516.169 187.071L452.073 251.167C448.167 255.073 448.167 261.404 452.073 265.31L516.169 329.406C520.074 333.311 526.406 333.311 530.311 329.406L594.407 265.31C598.313 261.404 598.313 255.073 594.407 251.167Z" fill="white"/>
<path d="M594.407 251.167L530.311 187.071C526.406 183.166 520.074 183.166 516.169 187.071L452.073 251.167C448.167 255.073 448.167 261.404 452.073 265.31L516.169 329.406C520.074 333.311 526.406 333.311 530.311 329.406L594.407 265.31C598.313 261.404 598.313 255.073 594.407 251.167Z" fill="url(#paint18_linear_2042_2303)"/>
<path d="M507.22 257C508.601 257 509.72 254.761 509.72 252C509.72 249.239 508.601 247 507.22 247C505.839 247 504.72 249.239 504.72 252C504.72 254.761 505.839 257 507.22 257Z" fill="white"/>
<path d="M531.22 257C532.601 257 533.72 254.761 533.72 252C533.72 249.239 532.601 247 531.22 247C529.839 247 528.72 249.239 528.72 252C528.72 254.761 529.839 257 531.22 257Z" fill="white"/>
<path d="M499.83 260.06L497.12 263.042" stroke="white" stroke-linecap="round"/>
<path d="M503.33 260L500.62 262.982" stroke="white" stroke-linecap="round"/>
<path d="M538.12 260.06L540.83 263.042" stroke="white" stroke-linecap="round"/>
<path d="M534.62 260L537.33 262.982" stroke="white" stroke-linecap="round"/>
<path d="M515 260C516.17 261.167 519.5 262.8 523.5 260" stroke="white" stroke-width="2" stroke-linecap="round"/>
<g style="mix-blend-mode:soft-light">
<path d="M587.53 244.456C546.74 270.774 520.89 310.907 513.48 326.808C517.6 331.463 520.99 332.486 523.09 332.267C538.71 294.436 578.21 264.742 597.4 254.325L587.53 244.456Z" fill="#707070"/>
</g>
<path d="M522.52 535.373C509.31 464.003 577.74 329.603 713.71 216.659C600 214.876 441.96 310.272 522.52 535.373Z" fill="white"/>
<path d="M522.52 535.373C509.31 464.003 577.74 329.603 713.71 216.659C600 214.876 441.96 310.272 522.52 535.373Z" fill="url(#paint19_linear_2042_2303)"/>
<g style="mix-blend-mode:color-burn">
<path d="M223.428 737.315C238.736 738.506 251.395 736.269 251.702 732.319C252.009 728.369 239.849 724.201 224.542 723.009C209.234 721.818 196.575 724.054 196.268 728.005C195.96 731.955 208.12 736.123 223.428 737.315Z" fill="#BDBDBD"/>
</g>
<path d="M293.637 664.235L241.86 601.565C238.705 597.746 233.053 597.208 229.234 600.363L166.564 652.14C162.746 655.294 162.208 660.947 165.362 664.765L217.139 727.435C220.294 731.254 225.946 731.792 229.765 728.637L292.435 676.86C296.253 673.706 296.791 668.053 293.637 664.235Z" fill="white"/>
<path d="M293.637 664.235L241.86 601.565C238.705 597.746 233.053 597.208 229.234 600.363L166.564 652.14C162.746 655.294 162.208 660.947 165.362 664.765L217.139 727.435C220.294 731.254 225.946 731.792 229.765 728.637L292.435 676.86C296.253 673.706 296.791 668.053 293.637 664.235Z" fill="url(#paint20_linear_2042_2303)"/>
<path d="M209.87 663.372L207.195 665.804" stroke="white" stroke-width="0.896803" stroke-linecap="round"/>
<path d="M212.998 663.615L210.323 666.047" stroke="white" stroke-width="0.896803" stroke-linecap="round"/>
<path d="M245.39 666.753L247.558 669.645" stroke="white" stroke-width="0.896803" stroke-linecap="round"/>
<path d="M242.272 666.401L244.44 669.294" stroke="white" stroke-width="0.896803" stroke-linecap="round"/>
<path d="M223.781 665.543C224.723 666.684 227.56 668.425 231.369 666.265" stroke="white" stroke-width="1.79361" stroke-linecap="round"/>
<path d="M213.279 652.832L217.895 655.888C218.552 656.323 218.369 657.333 217.601 657.51L212.727 658.635" stroke="white" stroke-width="1.79361" stroke-linecap="round"/>
<path d="M243.187 655.679L238.077 657.809C237.35 658.112 237.339 659.138 238.06 659.457L242.634 661.482" stroke="white" stroke-width="1.79361" stroke-linecap="round"/>
<path fill-rule="evenodd" clip-rule="evenodd" d="M212.526 972.824C206.579 974.773 200.227 975.827 193.629 975.827C160.144 975.827 133 948.682 133 915.198C133 881.714 160.144 854.569 193.629 854.569C198.313 854.569 202.874 855.101 207.253 856.106C216.439 834.305 238.007 819 263.15 819C286.15 819 306.159 831.808 316.434 850.681C324.298 846.953 333.09 844.868 342.37 844.868C375.86 844.868 403 872.013 403 905.497C403 938.981 375.86 966.126 342.37 966.126C334.31 966.126 326.61 964.551 319.569 961.692C310.699 984.172 288.782 1000.08 263.15 1000.08C241.996 1000.08 223.373 989.245 212.526 972.824Z" fill="url(#paint21_linear_2042_2303)"/>
<path fill-rule="evenodd" clip-rule="evenodd" d="M534.58 960.619C526.01 963.427 516.86 964.946 507.35 964.946C459.11 964.946 420 925.838 420 877.595C420 829.353 459.11 790.245 507.35 790.245C514.1 790.245 520.67 791.011 526.98 792.459C540.21 761.05 571.29 739 607.51 739C640.65 739 669.48 757.453 684.28 784.643C695.61 779.273 708.28 776.269 721.65 776.269C769.89 776.269 809 815.377 809 863.62C809 911.862 769.89 950.97 721.65 950.97C710.03 950.97 698.94 948.701 688.8 944.581C676.02 976.969 644.44 999.886 607.51 999.886C577.04 999.886 550.2 984.278 534.58 960.619Z" fill="url(#paint22_linear_2042_2303)"/>
</g>
<defs>
<linearGradient id="paint0_linear_2042_2303" x1="374.57" y1="106.04" x2="377.12" y2="324.932" gradientUnits="userSpaceOnUse">
<stop stop-color="#F5C259"/>
<stop offset="1" stop-color="#FFF1DD" stop-opacity="0"/>
</linearGradient>
<linearGradient id="paint1_linear_2042_2303" x1="303" y1="147" x2="302.527" y2="273.305" gradientUnits="userSpaceOnUse">
<stop stop-color="white"/>
<stop offset="1" stop-color="white" stop-opacity="0"/>
</linearGradient>
<linearGradient id="paint2_linear_2042_2303" x1="697.5" y1="178" x2="696.83" y2="356.266" gradientUnits="userSpaceOnUse">
<stop stop-color="white"/>
<stop offset="1" stop-color="white" stop-opacity="0"/>
</linearGradient>
<linearGradient id="paint3_linear_2042_2303" x1="148.483" y1="419.144" x2="158.557" y2="552.264" gradientUnits="userSpaceOnUse">
<stop stop-color="white"/>
<stop offset="1" stop-color="white" stop-opacity="0"/>
</linearGradient>
<linearGradient id="paint4_linear_2042_2303" x1="741.5" y1="2.98023e-08" x2="741" y2="133.5" gradientUnits="userSpaceOnUse">
<stop stop-color="white"/>
<stop offset="1" stop-color="white" stop-opacity="0"/>
</linearGradient>
<linearGradient id="paint5_linear_2042_2303" x1="525.5" y1="536" x2="525.4" y2="793" gradientUnits="userSpaceOnUse">
<stop stop-color="#C18F6B"/>
<stop offset="1" stop-color="#C18F6B" stop-opacity="0.46"/>
</linearGradient>
<linearGradient id="paint6_linear_2042_2303" x1="325.593" y1="401.49" x2="344.41" y2="557.483" gradientUnits="userSpaceOnUse">
<stop stop-color="#4CA98F"/>
<stop offset="1" stop-color="#4CA98F" stop-opacity="0"/>
</linearGradient>
<linearGradient id="paint7_linear_2042_2303" x1="410.04" y1="324.334" x2="354.53" y2="471.328" gradientUnits="userSpaceOnUse">
<stop stop-color="#4CA98F"/>
<stop offset="1" stop-color="#4CA98F" stop-opacity="0"/>
</linearGradient>
<linearGradient id="paint8_linear_2042_2303" x1="507.32" y1="296.721" x2="396.04" y2="407.653" gradientUnits="userSpaceOnUse">
<stop stop-color="#4CA98F"/>
<stop offset="1" stop-color="#4CA98F" stop-opacity="0"/>
</linearGradient>
<linearGradient id="paint9_linear_2042_2303" x1="636.69" y1="324.334" x2="692.19" y2="471.328" gradientUnits="userSpaceOnUse">
<stop stop-color="#4CA98F"/>
<stop offset="1" stop-color="#4CA98F" stop-opacity="0"/>
</linearGradient>
<linearGradient id="paint10_linear_2042_2303" x1="721.11" y1="400.036" x2="702.29" y2="556.028" gradientUnits="userSpaceOnUse">
<stop stop-color="#4CA98F"/>
<stop offset="1" stop-color="#4CA98F" stop-opacity="0"/>
</linearGradient>
<linearGradient id="paint11_linear_2042_2303" x1="326.13" y1="768.834" x2="326.58" y2="889.948" gradientUnits="userSpaceOnUse">
<stop stop-color="#C18F6B"/>
<stop offset="1" stop-color="white" stop-opacity="0.52"/>
</linearGradient>
<linearGradient id="paint12_linear_2042_2303" x1="179.617" y1="693.499" x2="193.661" y2="809.91" gradientUnits="userSpaceOnUse">
<stop stop-color="#4CA98F"/>
<stop offset="1" stop-color="#4CA98F" stop-opacity="0"/>
</linearGradient>
<linearGradient id="paint13_linear_2042_2303" x1="242.633" y1="635.919" x2="201.214" y2="745.615" gradientUnits="userSpaceOnUse">
<stop stop-color="#4CA98F"/>
<stop offset="1" stop-color="#4CA98F" stop-opacity="0"/>
</linearGradient>
<linearGradient id="paint14_linear_2042_2303" x1="315.231" y1="615.313" x2="232.192" y2="698.097" gradientUnits="userSpaceOnUse">
<stop stop-color="#4CA98F"/>
<stop offset="1" stop-color="#4CA98F" stop-opacity="0"/>
</linearGradient>
<linearGradient id="paint15_linear_2042_2303" x1="338.56" y1="615.313" x2="421.6" y2="698.097" gradientUnits="userSpaceOnUse">
<stop stop-color="#4CA98F"/>
<stop offset="1" stop-color="#4CA98F" stop-opacity="0"/>
</linearGradient>
<linearGradient id="paint16_linear_2042_2303" x1="411.78" y1="635.919" x2="453.2" y2="745.615" gradientUnits="userSpaceOnUse">
<stop stop-color="#4CA98F"/>
<stop offset="1" stop-color="#4CA98F" stop-opacity="0"/>
</linearGradient>
<linearGradient id="paint17_linear_2042_2303" x1="474.77" y1="692.413" x2="460.73" y2="808.824" gradientUnits="userSpaceOnUse">
<stop stop-color="#4CA98F"/>
<stop offset="1" stop-color="#4CA98F" stop-opacity="0"/>
</linearGradient>
<linearGradient id="paint18_linear_2042_2303" x1="523.004" y1="275.003" x2="523.715" y2="93.4982" gradientUnits="userSpaceOnUse">
<stop stop-color="#E35E77"/>
<stop offset="1" stop-color="#E35E77" stop-opacity="0"/>
</linearGradient>
<linearGradient id="paint19_linear_2042_2303" x1="538.58" y1="296.721" x2="649.85" y2="407.653" gradientUnits="userSpaceOnUse">
<stop stop-color="#4CA98F"/>
<stop offset="1" stop-color="#4CA98F" stop-opacity="0"/>
</linearGradient>
<linearGradient id="paint20_linear_2042_2303" x1="228.797" y1="669.623" x2="238.657" y2="541.015" gradientUnits="userSpaceOnUse">
<stop stop-color="#9179CC"/>
<stop offset="0.68437" stop-color="#E3D7FF"/>
<stop offset="1" stop-color="#9179CC" stop-opacity="0"/>
</linearGradient>
<linearGradient id="paint21_linear_2042_2303" x1="268" y1="819" x2="268" y2="963" gradientUnits="userSpaceOnUse">
<stop stop-color="white"/>
<stop offset="1" stop-color="white" stop-opacity="0"/>
</linearGradient>
<linearGradient id="paint22_linear_2042_2303" x1="614.5" y1="739" x2="614.5" y2="946.467" gradientUnits="userSpaceOnUse">
<stop stop-color="white"/>
<stop offset="1" stop-color="white" stop-opacity="0"/>
</linearGradient>
<clipPath id="clip0_2042_2303">
<rect width="766" height="1001" fill="white"/>
</clipPath>
</defs>
</svg>
