<svg width="560" height="283" viewBox="0 0 560 283" fill="none" xmlns="http://www.w3.org/2000/svg">
<g clip-path="url(#clip0_1693_2763)">
<rect width="560" height="283" rx="16" fill="url(#paint0_linear_1693_2763)"/>
<g filter="url(#filter0_d_1693_2763)">
<path d="M174.136 115.761L278.445 158.864L231.031 187.312H181.032L127.585 206.277H23.2762L-46.5502 236.449L-17.2404 -10.0986L11.2075 -0.616035L23.2762 19.2112L95.6888 12.3148L106.033 71.7966L174.136 115.761Z" fill="url(#paint1_linear_1693_2763)"/>
</g>
<path d="M294.901 132.655C263.295 137.396 207.289 149.995 152.674 144.685C119.663 141.476 70.2103 151.777 25.6182 138.048C-22.0089 123.385 -64.5645 84.6163 -91.0078 80.2091C-114.202 76.3433 -213.758 106.22 -274.954 80.2091C-329.573 56.9945 -343.028 90.5674 -382.099 97.2763V236.007L-308.141 312.809L281.626 291.001L294.901 132.655Z" fill="url(#paint2_linear_1693_2763)"/>
<path d="M145.654 170.169L-12.0332 236.599V277.509L58.0984 398.048L454.05 333.76L584.816 197.88L575.319 50.3115L428.481 137.976L295.523 149.665L145.654 170.169Z" fill="url(#paint3_linear_1693_2763)"/>
<path d="M533.342 38.2327L499.171 53.4043C492.145 56.5236 486.059 61.429 481.519 67.6321L454.456 104.61L427.548 104.61C420.826 104.61 414.193 106.15 408.158 109.112L383.648 121.144L345.354 115.199C339.965 114.362 334.468 114.535 329.142 115.707L181.336 148.252L423.495 158.648L566.041 93.5938L570.346 121.144L493.811 202.655L479.461 257.665L451.239 269.145L401.492 304.542L602.957 293.311L653.449 50.215L623.462 50.1741L619.082 40.7573C606.787 14.3214 572.646 6.93677 550.525 25.9284L544.149 31.4027C540.898 34.1933 537.258 36.4942 533.342 38.2327Z" fill="url(#paint4_linear_1693_2763)"/>
<mask id="mask0_1693_2763" style="mask-type:alpha" maskUnits="userSpaceOnUse" x="-29" y="-20" width="214" height="237">
<path d="M-18.8607 7.11057L-28.7422 216.804C-28.7422 216.804 8.98238 212.977 38.506 205.87C68.0297 198.762 135.463 174.537 135.463 174.537L184.963 48.6032L152.934 -19.8232H-18.8607V7.11057Z" fill="#D9D9D9"/>
</mask>
<g mask="url(#mask0_1693_2763)">
<path d="M71.8092 109.876C71.8092 109.876 71.9707 108.265 78.4357 108.265C84.9008 108.265 84.6248 109.876 84.6248 109.876V191.961H60.0718L71.8092 109.876Z" fill="url(#paint5_linear_1693_2763)"/>
<path d="M-61.035 -18.181C-61.035 -18.181 -58.8961 -18.1076 26.2474 -10.062C111.391 -2.01636 107.744 -2.23226 107.744 -2.23226C112.369 0.346508 107.13 4.26629 107.13 4.26629L-61.6491 -11.6825L-61.035 -18.181Z" fill="url(#paint6_linear_1693_2763)"/>
<path d="M-13.5472 41.4716C-13.5472 41.4716 -4.47064 44.6609 73.7353 49.5907C151.941 54.5205 155.967 53.0867 155.967 53.0867C160.592 55.6655 155.353 59.5853 155.353 59.5853L-14.1612 47.9702L-13.5472 41.4716Z" fill="url(#paint7_linear_1693_2763)"/>
<g filter="url(#filter1_i_1693_2763)">
<path d="M64.9833 115.897C58.775 114.347 48.9312 113.052 33.0162 115.897C36.1862 83.5798 46.9402 59.5843 50.1101 56.1706C64.2647 46.4089 56.5982 48.4786 74.4605 48.4786C103.806 48.4786 111.775 49.7149 151.803 53.2277C134.031 84.3956 127.947 127.809 127.947 146.844C113.304 133.666 92.9395 122.874 64.9833 115.897Z" fill="url(#paint8_linear_1693_2763)"/>
<path d="M64.9833 115.897C58.775 114.347 48.9312 113.052 33.0162 115.897C36.1862 83.5798 46.9402 59.5843 50.1101 56.1706C64.2647 46.4089 56.5982 48.4786 74.4605 48.4786C103.806 48.4786 111.775 49.7149 151.803 53.2277C134.031 84.3956 127.947 127.809 127.947 146.844C113.304 133.666 92.9395 122.874 64.9833 115.897Z" fill="black" fill-opacity="0.2"/>
</g>
<g filter="url(#filter2_ii_1693_2763)">
<path d="M41.2776 -30.9208C41.2776 -25.9877 30.2921 -3.64907 26.7423 -0.0992313C23.8414 2.80167 12.5912 3.59282 5.64487 3.59282C-2.44271 3.59282 -12.6835 1.0875 -15.4525 -1.68154C-19.6144 -5.84343 -27.3637 -28.7709 -27.3637 -33.2831C-27.3637 -40.7783 -15.8359 -44.4922 4.48442 -44.4922C24.8047 -44.4922 41.2776 -38.4161 41.2776 -30.9208Z" fill="url(#paint9_radial_1693_2763)"/>
<path d="M41.2776 -30.9208C41.2776 -25.9877 30.2921 -3.64907 26.7423 -0.0992313C23.8414 2.80167 12.5912 3.59282 5.64487 3.59282C-2.44271 3.59282 -12.6835 1.0875 -15.4525 -1.68154C-19.6144 -5.84343 -27.3637 -28.7709 -27.3637 -33.2831C-27.3637 -40.7783 -15.8359 -44.4922 4.48442 -44.4922C24.8047 -44.4922 41.2776 -38.4161 41.2776 -30.9208Z" fill="url(#paint10_linear_1693_2763)" fill-opacity="0.6"/>
</g>
<path d="M-8.02052 -0.039247C-8.02052 -0.039247 -7.6993 -3.2442 5.16043 -3.24414C18.0202 -3.24408 17.4712 -0.039247 17.4712 -0.039247V163.238H-15.2837L-8.02052 -0.039247Z" fill="url(#paint11_linear_1693_2763)"/>
<g filter="url(#filter3_i_1693_2763)">
<path d="M-24.6027 78.7301C-46.288 73.3179 -65.3526 70.5198 -83.4706 81.3907C-93.8282 56.9932 -81.8325 27.8138 -60.2348 -3.16009C-42.7208 -15.2388 -29.0054 -18.3803 -6.90357 -18.3803C29.4066 -18.3803 60.3274 -8.57097 102.819 -3.16009C80.8275 35.4055 53.3047 93.4693 53.3047 117.023C35.1867 100.717 9.98884 87.3634 -24.6027 78.7301Z" fill="url(#paint12_linear_1693_2763)"/>
<path d="M-24.6027 78.7301C-46.288 73.3179 -65.3526 70.5198 -83.4706 81.3907C-93.8282 56.9932 -81.8325 27.8138 -60.2348 -3.16009C-42.7208 -15.2388 -29.0054 -18.3803 -6.90357 -18.3803C29.4066 -18.3803 60.3274 -8.57097 102.819 -3.16009C80.8275 35.4055 53.3047 93.4693 53.3047 117.023C35.1867 100.717 9.98884 87.3634 -24.6027 78.7301Z" fill="black" fill-opacity="0.2"/>
<path d="M-24.6027 78.7301C-46.288 73.3179 -65.3526 70.5198 -83.4706 81.3907C-93.8282 56.9932 -81.8325 27.8138 -60.2348 -3.16009C-42.7208 -15.2388 -29.0054 -18.3803 -6.90357 -18.3803C29.4066 -18.3803 60.3274 -8.57097 102.819 -3.16009C80.8275 35.4055 53.3047 93.4693 53.3047 117.023C35.1867 100.717 9.98884 87.3634 -24.6027 78.7301Z" fill="#F5CCCC" fill-opacity="0.2"/>
</g>
<path d="M130.699 159.772L126.827 204.307L65.7717 216.831L-75.5782 245.875C-85.5824 237.162 -113.723 216.831 -142.381 193.595C-171.038 170.36 -182.075 125.825 -182.075 94.8439C-182.075 94.8439 -176.266 60.9587 -179.17 38.6913C-175.298 38.6913 -167.552 29.0098 -167.552 29.0098C-106.559 44.5002 4.7782 95.8121 42.536 125.825C58.8615 138.801 117.468 159.772 130.699 159.772Z" fill="url(#paint13_linear_1693_2763)"/>
<path fill-rule="evenodd" clip-rule="evenodd" d="M-167.573 160.224C-168.215 154.284 -168.521 148.568 -168.521 143.251C-168.521 143.251 -161.92 107.43 -164.648 85.1622C-161.011 85.1622 -157.871 77.417 -157.871 77.417C-100.587 92.9074 6.96964 144.219 42.4314 174.232C56.3137 185.981 82.5755 186.772 96.6431 186.817L65.7718 216.83L-75.578 245.875C-80.3075 241.756 -89.0902 235.04 -100.065 226.649C-112.304 217.29 -127.271 205.846 -142.38 193.595C-153.15 184.863 -161.431 173.122 -167.573 160.224Z" fill="url(#paint14_radial_1693_2763)"/>
</g>
<path d="M131.631 188.006C130.354 188.212 128.972 188.989 127.929 190.091L90.8729 229.205C89.4589 230.698 89.0535 232.288 89.4916 233.343L88.2889 270.135L327.573 231.708L337.342 214.763L337.366 214.756L337.353 214.745L337.364 214.725L337.334 214.73L334.502 212.39L234.357 228.652L243.429 208.528L312.248 197.476L321.934 180.675L321.987 180.66L321.957 180.635L322.039 180.493L321.828 180.528L319.123 178.293L237.927 191.478L229.263 173.817C228.838 172.952 227.825 172.558 226.547 172.764L131.631 188.006Z" fill="#764848" fill-opacity="0.28"/>
<ellipse cx="85.8877" cy="250.147" rx="33.5518" ry="6.75355" fill="#913C3C" fill-opacity="0.12"/>
<rect x="84.2275" y="132.62" width="84.9454" height="84.9454" rx="3.8386" transform="rotate(45 84.2275 132.62)" fill="white"/>
<rect x="84.2275" y="132.62" width="84.9454" height="84.9454" rx="3.8386" transform="rotate(45 84.2275 132.62)" fill="url(#paint15_linear_1693_2763)"/>
<ellipse cx="87.8065" cy="180.209" rx="1.9193" ry="3.8386" fill="white"/>
<ellipse cx="106.231" cy="180.209" rx="1.9193" ry="3.8386" fill="white"/>
<path d="M82.1367 186.397L80.054 188.686" stroke="white" stroke-width="0.767721" stroke-linecap="round"/>
<path d="M84.8227 186.35L82.7401 188.639" stroke="white" stroke-width="0.767721" stroke-linecap="round"/>
<path d="M111.528 186.397L113.611 188.686" stroke="white" stroke-width="0.767721" stroke-linecap="round"/>
<path d="M108.843 186.35L110.925 188.639" stroke="white" stroke-width="0.767721" stroke-linecap="round"/>
<path d="M93.7822 186.351C94.6779 187.246 97.237 188.5 100.308 186.351" stroke="white" stroke-width="1.53544" stroke-linecap="round"/>
<path d="M333.313 151.697L229.564 169.344L228.052 175.935L298.887 166.968L337.311 154.182L333.313 151.697Z" fill="#9D7A56"/>
<path fill-rule="evenodd" clip-rule="evenodd" d="M147.18 161.189L162.095 200.658L334.378 171.71L337.294 154.009L235.839 171.616L236.843 145.913L147.18 161.189Z" fill="url(#paint16_linear_1693_2763)"/>
<path fill-rule="evenodd" clip-rule="evenodd" d="M147.18 161.189L162.095 200.658L334.378 171.71L337.294 154.009L235.839 171.616L236.843 145.913L147.18 161.189Z" fill="url(#paint17_linear_1693_2763)" fill-opacity="0.2"/>
<path fill-rule="evenodd" clip-rule="evenodd" d="M147.18 161.189L162.095 200.658L334.378 171.71L337.294 154.009L235.839 171.616L236.843 145.913L147.18 161.189Z" fill="url(#paint18_linear_1693_2763)" fill-opacity="0.2"/>
<ellipse cx="320.928" cy="226.383" rx="33.5518" ry="6.75355" fill="#913C3C" fill-opacity="0.12"/>
<rect x="308.586" y="101.312" width="90.3227" height="90.3227" rx="4.0816" transform="rotate(39.4619 308.586 101.312)" fill="white"/>
<rect x="308.586" y="101.312" width="90.3227" height="90.3227" rx="4.0816" transform="rotate(39.4619 308.586 101.312)" fill="url(#paint19_linear_1693_2763)"/>
<ellipse cx="317.441" cy="157.694" rx="2.0408" ry="4.0816" transform="rotate(5.13843 317.441 157.694)" fill="white"/>
<ellipse cx="336.954" cy="159.448" rx="2.0408" ry="4.0816" transform="rotate(5.13843 336.954 159.448)" fill="white"/>
<path d="M310.847 163.708L308.424 165.934" stroke="white" stroke-width="0.81632" stroke-linecap="round"/>
<path d="M313.696 163.914L311.273 166.14" stroke="white" stroke-width="0.81632" stroke-linecap="round"/>
<path d="M341.974 166.506L343.962 169.129" stroke="white" stroke-width="0.81632" stroke-linecap="round"/>
<path d="M339.134 166.201L341.122 168.824" stroke="white" stroke-width="0.81632" stroke-linecap="round"/>
<path d="M322.978 165.487C322.89 166.462 323.297 168.012 324.044 169.312C324.411 169.951 324.84 170.491 325.289 170.851C325.745 171.217 326.161 171.35 326.505 171.313C326.849 171.275 327.261 171.064 327.731 170.628C328.198 170.195 328.665 169.59 329.09 168.892C329.949 167.481 330.537 165.857 330.627 164.849C330.671 164.359 330.584 164.167 330.518 164.088C330.455 164.013 330.331 163.944 330.032 163.933C329.724 163.921 329.327 163.975 328.813 164.06C328.718 164.076 328.62 164.093 328.519 164.11C328.094 164.182 327.618 164.264 327.134 164.316C326.582 164.376 326.026 164.388 325.525 164.398C325.473 164.399 325.423 164.4 325.372 164.401C324.814 164.413 324.345 164.431 323.951 164.501C323.551 164.572 323.345 164.679 323.235 164.781C323.152 164.859 323.019 165.032 322.978 165.487Z" stroke="white" stroke-width="1.37622"/>
<path fill-rule="evenodd" clip-rule="evenodd" d="M142.191 161.032C140.948 161.241 139.843 162.047 139.228 163.194L117.405 203.898C115.877 206.748 118.025 209.955 121.114 209.436L264.155 185.402C267.243 184.883 268.711 181.068 266.688 178.815L237.798 146.631C236.984 145.725 235.76 145.31 234.517 145.519L142.191 161.032Z" fill="#9D7A56"/>
<path d="M363.953 187.388L260.204 205.034L258.692 211.625L329.526 202.658L367.95 189.873L363.953 187.388Z" fill="#9D7A56"/>
<path fill-rule="evenodd" clip-rule="evenodd" d="M117.274 206.984L132.264 246.651L365.019 207.542L367.935 189.841L266.48 207.448L267.484 181.745L117.274 206.984Z" fill="url(#paint20_linear_1693_2763)"/>
<path fill-rule="evenodd" clip-rule="evenodd" d="M117.274 206.984L132.264 246.651L365.019 207.542L367.935 189.841L266.48 207.448L267.484 181.745L117.274 206.984Z" fill="url(#paint21_linear_1693_2763)" fill-opacity="0.2"/>
<path fill-rule="evenodd" clip-rule="evenodd" d="M117.274 206.984L132.264 246.651L365.019 207.542L367.935 189.841L266.48 207.448L267.484 181.745L117.274 206.984Z" fill="url(#paint22_linear_1693_2763)" fill-opacity="0.2"/>
<path fill-rule="evenodd" clip-rule="evenodd" d="M234.495 151.197C235.116 151.092 235.728 151.3 236.135 151.753L258.134 176.259C259.145 177.386 258.411 179.293 256.867 179.553L127.052 201.365C125.508 201.625 124.434 200.021 125.197 198.596L141.815 167.602C142.122 167.028 142.675 166.625 143.296 166.521L234.495 151.197Z" fill="url(#paint23_linear_1693_2763)"/>
<mask id="mask1_1693_2763" style="mask-type:alpha" maskUnits="userSpaceOnUse" x="115" y="82" width="171" height="120">
<path fill-rule="evenodd" clip-rule="evenodd" d="M270.184 82.1025C270.411 82.0645 270.639 82.0674 270.859 82.1112L281.677 84.2647C282.452 84.419 283.018 85.0556 283.096 85.8605L285.83 114.056C285.861 114.37 285.814 114.692 285.696 114.994L260.976 177.823C260.706 178.508 260.096 179.011 259.39 179.129L125.258 201.667C124.217 201.842 123.287 201.143 123.167 200.095L115.547 133.379C115.505 133.009 115.562 132.579 115.876 132.359C116.144 132.171 116.452 132.065 116.706 131.858L153.215 102.032C153.493 101.805 153.821 101.655 154.165 101.597L270.184 82.1025Z" fill="url(#paint24_linear_1693_2763)"/>
</mask>
<g mask="url(#mask1_1693_2763)">
<ellipse cx="244.36" cy="164.983" rx="14.5936" ry="35.5968" transform="rotate(23.6844 244.36 164.983)" fill="url(#paint25_radial_1693_2763)"/>
<path d="M244.283 148.285C247.481 151.393 254.001 155.083 255.301 155.805C255.381 155.849 255.364 155.965 255.274 155.981C253.86 156.241 246.825 157.25 240.72 153.017C233.898 148.285 240.72 144.824 244.283 148.285Z" fill="url(#paint26_linear_1693_2763)"/>
<path d="M237.634 159.385C240.833 162.493 247.353 166.183 248.652 166.904C248.733 166.949 248.716 167.064 248.625 167.081C247.211 167.34 240.176 168.35 234.072 164.117C227.249 159.385 234.072 155.923 237.634 159.385Z" fill="url(#paint27_linear_1693_2763)"/>
<path d="M230.272 172.644C233.47 175.752 239.99 179.442 241.289 180.163C241.37 180.208 241.353 180.323 241.262 180.34C239.849 180.599 232.813 181.609 226.709 177.375C219.887 172.644 226.709 169.182 230.272 172.644Z" fill="url(#paint28_linear_1693_2763)"/>
<ellipse cx="14.4912" cy="39.1046" rx="14.4912" ry="39.1046" transform="matrix(0.990928 0.113202 0.0832698 0.993103 200.469 121.98)" fill="url(#paint29_radial_1693_2763)"/>
<path d="M210.019 145.045C214.313 147.239 221.819 148.917 223.185 149.211C223.27 149.23 223.299 149.331 223.23 149.379C222.195 150.087 216.567 153.572 209.206 151.18C201.043 148.527 205.281 142.625 210.019 145.045Z" fill="url(#paint30_linear_1693_2763)"/>
<path d="M209.589 158.864C213.883 161.058 221.389 162.736 222.755 163.031C222.84 163.049 222.869 163.151 222.8 163.198C221.765 163.907 216.137 167.392 208.776 164.999C200.613 162.346 204.851 156.444 209.589 158.864Z" fill="url(#paint31_linear_1693_2763)"/>
<path d="M212.087 174.146C216.381 176.341 223.887 178.018 225.253 178.313C225.338 178.331 225.367 178.433 225.298 178.48C224.262 179.189 218.635 182.674 211.274 180.282C203.11 177.629 207.349 171.726 212.087 174.146Z" fill="url(#paint32_linear_1693_2763)"/>
<path fill-rule="evenodd" clip-rule="evenodd" d="M149.984 169.149L183.223 157.805L195.216 192.944L195.202 192.949C196.357 197.395 190.228 203.356 181.256 206.418C172.284 209.48 163.789 208.51 161.985 204.285L161.977 204.288L161.926 204.14C161.907 204.09 161.889 204.039 161.871 203.988C161.854 203.937 161.837 203.886 161.822 203.834L149.984 169.149Z" fill="url(#paint33_linear_1693_2763)"/>
<ellipse cx="17.5607" cy="8.56084" rx="17.5607" ry="8.56084" transform="matrix(-0.946403 0.322988 0.322988 0.946403 180.399 149.462)" fill="url(#paint34_linear_1693_2763)"/>
<path fill-rule="evenodd" clip-rule="evenodd" d="M154.329 171.39L181.159 162.233L190.84 190.598L190.828 190.602C191.76 194.19 186.813 199.002 179.571 201.474C172.329 203.945 165.472 203.162 164.016 199.752L164.009 199.754L163.969 199.637C163.954 199.596 163.938 199.554 163.924 199.512C163.91 199.47 163.896 199.428 163.884 199.386L154.329 171.39Z" fill="url(#paint35_linear_1693_2763)"/>
<ellipse cx="14.1748" cy="6.91022" rx="14.1748" ry="6.91022" transform="matrix(-0.946403 0.322988 0.322988 0.946403 178.879 155.5)" fill="url(#paint36_linear_1693_2763)"/>
<path fill-rule="evenodd" clip-rule="evenodd" d="M158.789 157.006L169.733 153.271L171.378 158.092L171.374 158.093C171.901 159.987 170.001 162.294 167.046 163.302C164.092 164.31 161.178 163.647 160.437 161.826L160.434 161.827L160.397 161.718C160.394 161.711 160.392 161.705 160.39 161.698C160.387 161.692 160.385 161.685 160.383 161.679L158.789 157.006Z" fill="url(#paint37_linear_1693_2763)" fill-opacity="0.65"/>
<path fill-rule="evenodd" clip-rule="evenodd" d="M155.024 156.555C155.02 156.545 155.017 156.536 155.014 156.526C155.011 156.517 155.007 156.507 155.004 156.498L154.138 153.959L155.935 153.345C157.171 151.815 159.422 150.333 162.196 149.386C164.971 148.439 167.658 148.236 169.572 148.691L171.369 148.078L172.299 150.801L172.293 150.803C172.892 153.108 169.715 156.199 165.063 157.786C160.412 159.374 156.008 158.87 155.073 156.68L155.067 156.682L155.024 156.555Z" fill="url(#paint38_linear_1693_2763)"/>
<ellipse cx="9.10374" cy="4.43807" rx="9.10374" ry="4.43807" transform="matrix(-0.946403 0.322988 0.322988 0.946403 170.013 144.104)" fill="url(#paint39_linear_1693_2763)"/>
<ellipse cx="7.33572" cy="2.99622" rx="7.33572" ry="2.99622" transform="matrix(-0.946403 0.322988 0.322988 0.946403 168.653 145.762)" fill="url(#paint40_linear_1693_2763)" fill-opacity="0.4" style="mix-blend-mode:multiply"/>
<path fill-rule="evenodd" clip-rule="evenodd" d="M173.773 170.656L208.189 177.661L200.783 214.045L200.768 214.042C199.519 218.462 191.218 220.51 181.928 218.619C172.638 216.728 165.798 211.598 166.376 207.041L166.367 207.039L166.399 206.886C166.407 206.833 166.417 206.78 166.428 206.727C166.439 206.674 166.45 206.622 166.463 206.569L173.773 170.656Z" fill="url(#paint41_linear_1693_2763)"/>
<ellipse cx="17.5607" cy="8.56084" rx="17.5607" ry="8.56084" transform="matrix(-0.979906 -0.199461 -0.199461 0.979906 209.966 169.035)" fill="url(#paint42_linear_1693_2763)"/>
<path fill-rule="evenodd" clip-rule="evenodd" d="M176.39 174.786L204.17 180.44L198.192 209.809L198.18 209.806C197.171 213.374 190.471 215.027 182.972 213.501C175.474 211.975 169.953 207.834 170.419 204.156L170.412 204.154L170.437 204.033C170.444 203.989 170.452 203.946 170.461 203.902C170.47 203.859 170.479 203.815 170.49 203.773L176.39 174.786Z" fill="url(#paint43_linear_1693_2763)"/>
<ellipse cx="14.1748" cy="6.91022" rx="14.1748" ry="6.91022" transform="matrix(-0.979906 -0.199461 -0.199461 0.979906 205.604 173.478)" fill="url(#paint44_linear_1693_2763)"/>
<path fill-rule="evenodd" clip-rule="evenodd" d="M187.506 164.626L198.837 166.933L197.821 171.924L197.818 171.923C197.316 173.824 194.51 174.854 191.451 174.232C188.392 173.609 186.212 171.564 186.494 169.618L186.49 169.617L186.513 169.504C186.514 169.497 186.516 169.491 186.517 169.484C186.518 169.477 186.52 169.471 186.521 169.464L187.506 164.626Z" fill="url(#paint45_linear_1693_2763)" fill-opacity="0.65"/>
<path fill-rule="evenodd" clip-rule="evenodd" d="M185.065 163.111C185.066 163.103 185.068 163.095 185.069 163.088C185.071 163.08 185.072 163.073 185.074 163.065L185.562 160.67L187.254 161.014C188.928 160.381 191.375 160.252 193.987 160.784C196.6 161.316 198.802 162.391 200.095 163.628L201.787 163.973L201.265 166.537L201.26 166.536C200.671 168.62 196.757 169.586 192.377 168.694C187.997 167.803 184.772 165.384 185.045 163.235L185.04 163.234L185.065 163.111Z" fill="url(#paint46_linear_1693_2763)"/>
<ellipse cx="8.27931" cy="4.03616" rx="8.27931" ry="4.03616" transform="matrix(-0.979906 -0.199461 -0.199461 0.979906 202.549 160.23)" fill="url(#paint47_linear_1693_2763)"/>
<ellipse cx="6.6714" cy="2.72489" rx="6.6714" ry="2.72489" transform="matrix(-0.979906 -0.199461 -0.199461 0.979906 200.72 160.906)" fill="url(#paint48_linear_1693_2763)" fill-opacity="0.4" style="mix-blend-mode:multiply"/>
<path fill-rule="evenodd" clip-rule="evenodd" d="M174.105 192.579L176.4 191.809L177.566 195.287L177.559 195.289C178.307 198.232 174.236 202.15 168.296 204.142C162.355 206.135 156.745 205.463 155.568 202.664L155.561 202.667L155.497 202.479C155.496 202.475 155.495 202.472 155.494 202.468C155.493 202.465 155.492 202.461 155.49 202.458L154.394 199.189L156.689 198.42C158.276 196.476 161.155 194.603 164.698 193.414C168.241 192.226 171.667 191.986 174.105 192.579Z" fill="url(#paint49_linear_1693_2763)"/>
<ellipse cx="165.494" cy="195.787" rx="11.6051" ry="5.6575" transform="rotate(-18.5398 165.494 195.787)" fill="url(#paint50_linear_1693_2763)"/>
<ellipse cx="165.433" cy="195.388" rx="9.35134" ry="3.81949" transform="rotate(-18.5398 165.433 195.388)" fill="url(#paint51_linear_1693_2763)" fill-opacity="0.4" style="mix-blend-mode:multiply"/>
<path fill-rule="evenodd" clip-rule="evenodd" d="M160.801 187.753L163.096 186.983L164.263 190.461L164.255 190.463C165.004 193.405 160.932 197.324 154.992 199.316C149.052 201.308 143.441 200.637 142.264 197.838L142.257 197.841L142.201 197.672C142.197 197.662 142.194 197.652 142.19 197.642C142.187 197.632 142.184 197.622 142.18 197.612L141.091 194.363L143.385 193.593C144.972 191.65 147.851 189.777 151.394 188.588C154.938 187.4 158.364 187.159 160.801 187.753Z" fill="url(#paint52_linear_1693_2763)"/>
<ellipse cx="152.19" cy="190.961" rx="11.6051" ry="5.6575" transform="rotate(-18.5398 152.19 190.961)" fill="url(#paint53_linear_1693_2763)"/>
<ellipse cx="152.13" cy="190.562" rx="9.35134" ry="3.81949" transform="rotate(-18.5398 152.13 190.562)" fill="url(#paint54_linear_1693_2763)" fill-opacity="0.4" style="mix-blend-mode:multiply"/>
<path fill-rule="evenodd" clip-rule="evenodd" d="M130.438 199.193L128.147 199.975L129.332 203.446L129.339 203.444C130.531 206.236 136.145 206.878 142.075 204.854C148.005 202.831 152.055 198.891 151.291 195.952L151.298 195.95L151.238 195.773C151.235 195.766 151.233 195.759 151.231 195.752C151.228 195.745 151.226 195.738 151.223 195.731L150.113 192.478L147.823 193.26C145.382 192.68 141.957 192.939 138.42 194.146C134.883 195.353 132.015 197.242 130.438 199.193Z" fill="url(#paint55_linear_1693_2763)"/>
<ellipse cx="11.6051" cy="5.6575" rx="11.6051" ry="5.6575" transform="matrix(-0.946403 0.322988 0.322988 0.946403 148.384 187.411)" fill="url(#paint56_linear_1693_2763)"/>
<ellipse cx="9.35134" cy="3.81949" rx="9.35134" ry="3.81949" transform="matrix(-0.946403 0.322988 0.322988 0.946403 146.651 189.525)" fill="url(#paint57_linear_1693_2763)" fill-opacity="0.4" style="mix-blend-mode:multiply"/>
<path fill-rule="evenodd" clip-rule="evenodd" d="M166.769 186.923L168.635 186.297L169.583 189.125L169.577 189.127C170.186 191.52 166.875 194.707 162.044 196.327C157.214 197.947 152.651 197.401 151.694 195.125L151.688 195.127L151.636 194.972C151.635 194.97 151.634 194.968 151.634 194.966C151.633 194.963 151.632 194.961 151.632 194.959L150.739 192.299L152.606 191.673C153.896 190.093 156.237 188.569 159.119 187.603C162 186.636 164.786 186.441 166.769 186.923Z" fill="url(#paint58_linear_1693_2763)"/>
<ellipse cx="159.766" cy="189.532" rx="9.43756" ry="4.60081" transform="rotate(-18.5398 159.766 189.532)" fill="url(#paint59_linear_1693_2763)"/>
<ellipse cx="159.717" cy="189.208" rx="7.60471" ry="3.10609" transform="rotate(-18.5398 159.717 189.208)" fill="url(#paint60_linear_1693_2763)" fill-opacity="0.4" style="mix-blend-mode:multiply"/>
<path fill-rule="evenodd" clip-rule="evenodd" d="M191.946 190.698L191.998 190.853L191.992 190.855C192.601 193.248 189.29 196.434 184.459 198.054C179.628 199.674 175.066 199.128 174.109 196.852L174.103 196.854L173.154 194.026L175.021 193.4C176.311 191.82 178.652 190.297 181.533 189.33C184.415 188.364 187.201 188.168 189.184 188.651L191.05 188.025L191.942 190.685C191.943 190.687 191.943 190.689 191.944 190.692C191.945 190.694 191.946 190.696 191.946 190.698Z" fill="url(#paint61_linear_1693_2763)"/>
<ellipse cx="182.18" cy="191.26" rx="9.43756" ry="4.60081" transform="rotate(-18.5398 182.18 191.26)" fill="url(#paint62_linear_1693_2763)"/>
<ellipse cx="182.132" cy="190.935" rx="7.60471" ry="3.10609" transform="rotate(-18.5398 182.132 190.935)" fill="url(#paint63_linear_1693_2763)" fill-opacity="0.4" style="mix-blend-mode:multiply"/>
<path fill-rule="evenodd" clip-rule="evenodd" d="M135.392 192.03C135.391 192.025 135.389 192.021 135.388 192.016C135.386 192.012 135.385 192.007 135.383 192.002L134.479 189.354L136.342 188.718C137.624 187.131 139.957 185.595 142.833 184.614C145.71 183.632 148.495 183.422 150.48 183.894L152.343 183.258L153.306 186.081L153.3 186.083C153.921 188.472 150.628 191.676 145.805 193.322C140.983 194.968 136.418 194.446 135.449 192.175L135.443 192.177L135.392 192.03Z" fill="url(#paint64_linear_1693_2763)"/>
<ellipse cx="9.43756" cy="4.60081" rx="9.43756" ry="4.60081" transform="matrix(-0.946403 0.322988 0.322988 0.946403 150.936 179.137)" fill="url(#paint65_linear_1693_2763)"/>
<ellipse cx="7.60471" cy="3.10609" rx="7.60471" ry="3.10609" transform="matrix(-0.946403 0.322988 0.322988 0.946403 149.527 180.855)" fill="url(#paint66_linear_1693_2763)" fill-opacity="0.4" style="mix-blend-mode:multiply"/>
</g>
<path fill-rule="evenodd" clip-rule="evenodd" d="M193.439 255.529C205.376 253.95 213.063 243.849 212.121 234.13C211.178 224.41 201.752 216.574 189.815 218.154C177.879 219.733 170.192 229.834 171.134 239.553C172.077 249.273 181.503 257.109 193.439 255.529ZM194.436 265.803C211.405 263.557 223.904 248.77 222.353 232.776C220.802 216.781 205.789 205.635 188.819 207.88C171.85 210.126 159.351 224.913 160.902 240.907C162.453 256.902 177.466 268.048 194.436 265.803Z" fill="url(#paint67_linear_1693_2763)"/>
<path fill-rule="evenodd" clip-rule="evenodd" d="M193.439 255.529C205.376 253.95 213.063 243.849 212.121 234.13C211.178 224.41 201.752 216.574 189.815 218.154C177.879 219.733 170.192 229.834 171.134 239.553C172.077 249.273 181.503 257.109 193.439 255.529ZM194.436 265.803C211.405 263.557 223.904 248.77 222.353 232.776C220.802 216.781 205.789 205.635 188.819 207.88C171.85 210.126 159.351 224.913 160.902 240.907C162.453 256.902 177.466 268.048 194.436 265.803Z" fill="url(#paint68_linear_1693_2763)" fill-opacity="0.2"/>
<path fill-rule="evenodd" clip-rule="evenodd" d="M193.439 255.529C205.376 253.95 213.063 243.849 212.121 234.13C211.178 224.41 201.752 216.574 189.815 218.154C177.879 219.733 170.192 229.834 171.134 239.553C172.077 249.273 181.503 257.109 193.439 255.529ZM194.436 265.803C211.405 263.557 223.904 248.77 222.353 232.776C220.802 216.781 205.789 205.635 188.819 207.88C171.85 210.126 159.351 224.913 160.902 240.907C162.453 256.902 177.466 268.048 194.436 265.803Z" fill="url(#paint69_linear_1693_2763)" fill-opacity="0.2"/>
<path fill-rule="evenodd" clip-rule="evenodd" d="M193.439 255.529C205.376 253.95 213.063 243.849 212.121 234.13C211.178 224.41 201.752 216.574 189.815 218.154C177.879 219.733 170.192 229.834 171.134 239.553C172.077 249.273 181.503 257.109 193.439 255.529ZM194.436 265.803C211.405 263.557 223.904 248.77 222.353 232.776C220.802 216.781 205.789 205.635 188.819 207.88C171.85 210.126 159.351 224.913 160.902 240.907C162.453 256.902 177.466 268.048 194.436 265.803Z" fill="white" fill-opacity="0.2"/>
<rect x="165.588" y="237.858" width="52.0327" height="7.32855" transform="rotate(-5.53814 165.588 237.858)" fill="url(#paint70_linear_1693_2763)"/>
<rect x="165.588" y="237.858" width="52.0327" height="7.32855" transform="rotate(-5.53814 165.588 237.858)" fill="url(#paint71_linear_1693_2763)" fill-opacity="0.2"/>
<rect x="165.588" y="237.858" width="52.0327" height="7.32855" transform="rotate(-5.53814 165.588 237.858)" fill="white" fill-opacity="0.2"/>
<rect x="174.079" y="219.63" width="52.0327" height="7.32855" transform="rotate(39.4619 174.079 219.63)" fill="url(#paint72_linear_1693_2763)"/>
<rect x="174.079" y="219.63" width="52.0327" height="7.32855" transform="rotate(39.4619 174.079 219.63)" fill="url(#paint73_linear_1693_2763)" fill-opacity="0.2"/>
<rect x="174.079" y="219.63" width="52.0327" height="7.32855" transform="rotate(39.4619 174.079 219.63)" fill="white" fill-opacity="0.2"/>
<rect x="205.945" y="216.831" width="52.0327" height="7.32855" transform="rotate(114.462 205.945 216.831)" fill="url(#paint74_linear_1693_2763)"/>
<rect x="205.945" y="216.831" width="52.0327" height="7.32855" transform="rotate(114.462 205.945 216.831)" fill="url(#paint75_linear_1693_2763)" fill-opacity="0.2"/>
<rect x="205.945" y="216.831" width="52.0327" height="7.32855" transform="rotate(114.462 205.945 216.831)" fill="white" fill-opacity="0.2"/>
<rect x="167.158" y="239.639" width="52.0327" height="7.32855" transform="rotate(-5.53814 167.158 239.639)" fill="url(#paint76_linear_1693_2763)"/>
<rect x="167.158" y="239.639" width="52.0327" height="7.32855" transform="rotate(-5.53814 167.158 239.639)" fill="url(#paint77_linear_1693_2763)" fill-opacity="0.2"/>
<rect x="167.158" y="239.639" width="52.0327" height="7.32855" transform="rotate(-5.53814 167.158 239.639)" fill="url(#paint78_linear_1693_2763)" fill-opacity="0.2"/>
<rect x="175.65" y="221.41" width="52.0327" height="7.32855" transform="rotate(39.4619 175.65 221.41)" fill="url(#paint79_linear_1693_2763)"/>
<rect x="175.65" y="221.41" width="52.0327" height="7.32855" transform="rotate(39.4619 175.65 221.41)" fill="url(#paint80_linear_1693_2763)" fill-opacity="0.2"/>
<rect x="175.65" y="221.41" width="52.0327" height="7.32855" transform="rotate(39.4619 175.65 221.41)" fill="url(#paint81_linear_1693_2763)" fill-opacity="0.2"/>
<rect x="207.515" y="218.611" width="52.0327" height="7.32855" transform="rotate(114.462 207.515 218.611)" fill="url(#paint82_linear_1693_2763)"/>
<rect x="207.515" y="218.611" width="52.0327" height="7.32855" transform="rotate(114.462 207.515 218.611)" fill="url(#paint83_linear_1693_2763)" fill-opacity="0.2"/>
<rect x="207.515" y="218.611" width="52.0327" height="7.32855" transform="rotate(114.462 207.515 218.611)" fill="url(#paint84_linear_1693_2763)" fill-opacity="0.2"/>
<path fill-rule="evenodd" clip-rule="evenodd" d="M193.648 257.683C205.585 256.103 213.272 246.003 212.33 236.283C211.387 226.564 201.961 218.728 190.024 220.307C178.088 221.887 170.401 231.987 171.343 241.707C172.286 251.426 181.712 259.262 193.648 257.683ZM194.645 267.956C211.614 265.711 224.113 250.924 222.562 234.929C221.011 218.934 205.998 207.788 189.028 210.034C172.059 212.279 159.56 227.066 161.111 243.061C162.662 259.056 177.675 270.202 194.645 267.956Z" fill="url(#paint85_linear_1693_2763)"/>
<path fill-rule="evenodd" clip-rule="evenodd" d="M193.648 257.683C205.585 256.103 213.272 246.003 212.33 236.283C211.387 226.564 201.961 218.728 190.024 220.307C178.088 221.887 170.401 231.987 171.343 241.707C172.286 251.426 181.712 259.262 193.648 257.683ZM194.645 267.956C211.614 265.711 224.113 250.924 222.562 234.929C221.011 218.934 205.998 207.788 189.028 210.034C172.059 212.279 159.56 227.066 161.111 243.061C162.662 259.056 177.675 270.202 194.645 267.956Z" fill="url(#paint86_linear_1693_2763)" fill-opacity="0.2"/>
<path fill-rule="evenodd" clip-rule="evenodd" d="M193.648 257.683C205.585 256.103 213.272 246.003 212.33 236.283C211.387 226.564 201.961 218.728 190.024 220.307C178.088 221.887 170.401 231.987 171.343 241.707C172.286 251.426 181.712 259.262 193.648 257.683ZM194.645 267.956C211.614 265.711 224.113 250.924 222.562 234.929C221.011 218.934 205.998 207.788 189.028 210.034C172.059 212.279 159.56 227.066 161.111 243.061C162.662 259.056 177.675 270.202 194.645 267.956Z" fill="url(#paint87_linear_1693_2763)" fill-opacity="0.2"/>
<path fill-rule="evenodd" clip-rule="evenodd" d="M193.648 257.683C205.585 256.103 213.272 246.003 212.33 236.283C211.387 226.564 201.961 218.728 190.024 220.307C178.088 221.887 170.401 231.987 171.343 241.707C172.286 251.426 181.712 259.262 193.648 257.683ZM194.645 267.956C211.614 265.711 224.113 250.924 222.562 234.929C221.011 218.934 205.998 207.788 189.028 210.034C172.059 212.279 159.56 227.066 161.111 243.061C162.662 259.056 177.675 270.202 194.645 267.956Z" fill="white" fill-opacity="0.2"/>
<path fill-rule="evenodd" clip-rule="evenodd" d="M193.904 260.316C205.84 258.737 213.527 248.636 212.585 238.917C211.643 229.197 202.216 221.361 190.28 222.941C178.344 224.52 170.656 234.621 171.599 244.341C172.541 254.06 181.968 261.896 193.904 260.316ZM194.9 270.59C211.869 268.344 224.368 253.558 222.817 237.563C221.267 221.568 206.253 210.422 189.284 212.667C172.314 214.913 159.815 229.7 161.366 245.695C162.917 261.689 177.931 272.835 194.9 270.59Z" fill="url(#paint88_linear_1693_2763)"/>
<path fill-rule="evenodd" clip-rule="evenodd" d="M193.904 260.316C205.84 258.737 213.527 248.636 212.585 238.917C211.643 229.197 202.216 221.361 190.28 222.941C178.344 224.52 170.656 234.621 171.599 244.341C172.541 254.06 181.968 261.896 193.904 260.316ZM194.9 270.59C211.869 268.344 224.368 253.558 222.817 237.563C221.267 221.568 206.253 210.422 189.284 212.667C172.314 214.913 159.815 229.7 161.366 245.695C162.917 261.689 177.931 272.835 194.9 270.59Z" fill="url(#paint89_linear_1693_2763)" fill-opacity="0.2"/>
<path fill-rule="evenodd" clip-rule="evenodd" d="M193.904 260.316C205.84 258.737 213.527 248.636 212.585 238.917C211.643 229.197 202.216 221.361 190.28 222.941C178.344 224.52 170.656 234.621 171.599 244.341C172.541 254.06 181.968 261.896 193.904 260.316ZM194.9 270.59C211.869 268.344 224.368 253.558 222.817 237.563C221.267 221.568 206.253 210.422 189.284 212.667C172.314 214.913 159.815 229.7 161.366 245.695C162.917 261.689 177.931 272.835 194.9 270.59Z" fill="url(#paint90_linear_1693_2763)" fill-opacity="0.2"/>
<circle cx="192.022" cy="240.909" r="7.40164" transform="rotate(16.9688 192.022 240.909)" fill="url(#paint91_linear_1693_2763)"/>
<circle cx="192.022" cy="240.909" r="7.40164" transform="rotate(16.9688 192.022 240.909)" fill="url(#paint92_linear_1693_2763)" fill-opacity="0.2"/>
<circle cx="192.022" cy="240.909" r="7.40164" transform="rotate(16.9688 192.022 240.909)" fill="url(#paint93_linear_1693_2763)" fill-opacity="0.2"/>
<ellipse cx="400.78" cy="215.223" rx="22.4612" ry="6.18609" fill="#913C3C" fill-opacity="0.12"/>
<rect x="397.459" y="161.905" width="43.8227" height="35.926" rx="1.8107" transform="rotate(50.655 397.459 161.905)" fill="#98CEBE"/>
<rect x="397.459" y="161.905" width="43.8227" height="35.926" rx="1.8107" transform="rotate(50.655 397.459 161.905)" fill="url(#paint94_linear_1693_2763)"/>
<ellipse cx="1.46336" cy="2.92671" rx="1.46336" ry="2.92671" transform="matrix(0.980581 0.196116 0 1 385.942 180.791)" fill="white"/>
<ellipse cx="1.46336" cy="2.92671" rx="1.46336" ry="2.92671" transform="matrix(0.980581 0.196116 0 1 397.525 183.59)" fill="white"/>
<path d="M394.274 190.852C394.274 191.469 394.048 192.132 393.665 192.606C393.28 193.081 392.788 193.308 392.279 193.206C391.762 193.103 391.221 192.66 390.788 192.013C390.359 191.372 390.097 190.615 390.097 190.017C390.097 189.454 390.327 189.141 390.688 188.975C391.072 188.799 391.632 188.782 392.279 188.911C392.928 189.041 393.43 189.271 393.761 189.578C394.068 189.864 394.274 190.261 394.274 190.852Z" stroke="white" stroke-width="0.841453"/>
<path d="M383.138 187.875L381.581 189.308" stroke="white" stroke-width="0.585343" stroke-linecap="round"/>
<path d="M385.146 188.241L383.589 189.675" stroke="white" stroke-width="0.585343" stroke-linecap="round"/>
<path d="M405.112 192.269L406.669 194.326" stroke="white" stroke-width="0.585343" stroke-linecap="round"/>
<path d="M403.104 191.833L404.661 193.89" stroke="white" stroke-width="0.585343" stroke-linecap="round"/>
</g>
<defs>
<filter id="filter0_d_1693_2763" x="-46.5503" y="-25.0986" width="335.995" height="261.548" filterUnits="userSpaceOnUse" color-interpolation-filters="sRGB">
<feFlood flood-opacity="0" result="BackgroundImageFix"/>
<feColorMatrix in="SourceAlpha" type="matrix" values="0 0 0 0 0 0 0 0 0 0 0 0 0 0 0 0 0 0 127 0" result="hardAlpha"/>
<feOffset dx="7" dy="-11"/>
<feGaussianBlur stdDeviation="2"/>
<feComposite in2="hardAlpha" operator="out"/>
<feColorMatrix type="matrix" values="0 0 0 0 0 0 0 0 0 0 0 0 0 0 0 0 0 0 0.1 0"/>
<feBlend mode="normal" in2="BackgroundImageFix" result="effect1_dropShadow_1693_2763"/>
<feBlend mode="normal" in="SourceGraphic" in2="effect1_dropShadow_1693_2763" result="shape"/>
</filter>
<filter id="filter1_i_1693_2763" x="33.0161" y="48.2949" width="118.787" height="98.5488" filterUnits="userSpaceOnUse" color-interpolation-filters="sRGB">
<feFlood flood-opacity="0" result="BackgroundImageFix"/>
<feBlend mode="normal" in="SourceGraphic" in2="BackgroundImageFix" result="shape"/>
<feColorMatrix in="SourceAlpha" type="matrix" values="0 0 0 0 0 0 0 0 0 0 0 0 0 0 0 0 0 0 127 0" result="hardAlpha"/>
<feOffset dx="16" dy="-43"/>
<feComposite in2="hardAlpha" operator="arithmetic" k2="-1" k3="1"/>
<feColorMatrix type="matrix" values="0 0 0 0 0.420833 0 0 0 0 0.163634 0 0 0 0 0.0824132 0 0 0 0.1 0"/>
<feBlend mode="normal" in2="shape" result="effect1_innerShadow_1693_2763"/>
</filter>
<filter id="filter2_ii_1693_2763" x="-27.3638" y="-44.4922" width="68.6416" height="48.085" filterUnits="userSpaceOnUse" color-interpolation-filters="sRGB">
<feFlood flood-opacity="0" result="BackgroundImageFix"/>
<feBlend mode="normal" in="SourceGraphic" in2="BackgroundImageFix" result="shape"/>
<feColorMatrix in="SourceAlpha" type="matrix" values="0 0 0 0 0 0 0 0 0 0 0 0 0 0 0 0 0 0 127 0" result="hardAlpha"/>
<feOffset dy="7.39741"/>
<feComposite in2="hardAlpha" operator="arithmetic" k2="-1" k3="1"/>
<feColorMatrix type="matrix" values="0 0 0 0 0 0 0 0 0 0 0 0 0 0 0 0 0 0 0.25 0"/>
<feBlend mode="normal" in2="shape" result="effect1_innerShadow_1693_2763"/>
<feColorMatrix in="SourceAlpha" type="matrix" values="0 0 0 0 0 0 0 0 0 0 0 0 0 0 0 0 0 0 127 0" result="hardAlpha"/>
<feOffset dy="5.91793"/>
<feComposite in2="hardAlpha" operator="arithmetic" k2="-1" k3="1"/>
<feColorMatrix type="matrix" values="0 0 0 0 0.788235 0 0 0 0 0.678431 0 0 0 0 0.494118 0 0 0 0.6 0"/>
<feBlend mode="normal" in2="effect1_innerShadow_1693_2763" result="effect2_innerShadow_1693_2763"/>
</filter>
<filter id="filter3_i_1693_2763" x="-87.2466" y="-18.3799" width="190.065" height="135.402" filterUnits="userSpaceOnUse" color-interpolation-filters="sRGB">
<feFlood flood-opacity="0" result="BackgroundImageFix"/>
<feBlend mode="normal" in="SourceGraphic" in2="BackgroundImageFix" result="shape"/>
<feColorMatrix in="SourceAlpha" type="matrix" values="0 0 0 0 0 0 0 0 0 0 0 0 0 0 0 0 0 0 127 0" result="hardAlpha"/>
<feOffset dx="20" dy="-49"/>
<feComposite in2="hardAlpha" operator="arithmetic" k2="-1" k3="1"/>
<feColorMatrix type="matrix" values="0 0 0 0 0.420833 0 0 0 0 0.163634 0 0 0 0 0.0824132 0 0 0 0.1 0"/>
<feBlend mode="normal" in2="shape" result="effect1_innerShadow_1693_2763"/>
</filter>
<linearGradient id="paint0_linear_1693_2763" x1="280" y1="0" x2="280" y2="283" gradientUnits="userSpaceOnUse">
<stop stop-color="#BEE1FC"/>
<stop offset="1" stop-color="#F5D9B9"/>
</linearGradient>
<linearGradient id="paint1_linear_1693_2763" x1="115.947" y1="-10.0986" x2="115.947" y2="283" gradientUnits="userSpaceOnUse">
<stop stop-color="#8EBB98"/>
<stop offset="1" stop-color="#4CA971"/>
</linearGradient>
<linearGradient id="paint2_linear_1693_2763" x1="-43.5989" y1="16.9776" x2="-43.5989" y2="312.809" gradientUnits="userSpaceOnUse">
<stop stop-color="#7FD9C0"/>
<stop offset="1" stop-color="#3070C7"/>
</linearGradient>
<linearGradient id="paint3_linear_1693_2763" x1="286.392" y1="50.3115" x2="286.392" y2="398.048" gradientUnits="userSpaceOnUse">
<stop stop-color="#DBDCD7"/>
<stop offset="1" stop-color="#F4D8B8"/>
</linearGradient>
<linearGradient id="paint4_linear_1693_2763" x1="527.154" y1="7.92503" x2="434.088" y2="285.856" gradientUnits="userSpaceOnUse">
<stop stop-color="#9ABB8E"/>
<stop offset="1" stop-color="#6AA94C"/>
</linearGradient>
<linearGradient id="paint5_linear_1693_2763" x1="72.8449" y1="108.265" x2="100.895" y2="118.59" gradientUnits="userSpaceOnUse">
<stop stop-color="#976D47"/>
<stop offset="0.239608" stop-color="#744427"/>
</linearGradient>
<linearGradient id="paint6_linear_1693_2763" x1="-47.3836" y1="-17.0197" x2="-47.9189" y2="-10.1609" gradientUnits="userSpaceOnUse">
<stop stop-color="#976D47"/>
<stop offset="0.239608" stop-color="#744427"/>
</linearGradient>
<linearGradient id="paint7_linear_1693_2763" x1="0.839437" y1="38.2992" x2="0.304143" y2="45.1581" gradientUnits="userSpaceOnUse">
<stop stop-color="#976D47"/>
<stop offset="0.239608" stop-color="#744427"/>
</linearGradient>
<linearGradient id="paint8_linear_1693_2763" x1="-11.3639" y1="130.399" x2="112.23" y2="92.8239" gradientUnits="userSpaceOnUse">
<stop stop-color="#EBBEBE"/>
<stop offset="1" stop-color="#D9D9D9"/>
</linearGradient>
<radialGradient id="paint9_radial_1693_2763" cx="0" cy="0" r="1" gradientUnits="userSpaceOnUse" gradientTransform="translate(4.48457 0.713026) rotate(-90) scale(9.12047 23.2688)">
<stop offset="0.785" stop-color="#7A5534"/>
<stop offset="1" stop-color="#9E7A56"/>
</radialGradient>
<linearGradient id="paint10_linear_1693_2763" x1="8.94242" y1="-34.9138" x2="-30.6746" y2="-39.759" gradientUnits="userSpaceOnUse">
<stop stop-color="#6A2813" stop-opacity="0.62"/>
<stop offset="1" stop-color="#B6902F" stop-opacity="0"/>
</linearGradient>
<linearGradient id="paint11_linear_1693_2763" x1="-5.96048" y1="-3.24414" x2="49.835" y2="17.295" gradientUnits="userSpaceOnUse">
<stop stop-color="#976D47"/>
<stop offset="0.239608" stop-color="#744427"/>
</linearGradient>
<linearGradient id="paint12_linear_1693_2763" x1="-119.071" y1="96.674" x2="33.858" y2="50.1808" gradientUnits="userSpaceOnUse">
<stop stop-color="#EBBEBE"/>
<stop offset="1" stop-color="#D9D9D9"/>
</linearGradient>
<linearGradient id="paint13_linear_1693_2763" x1="59.7945" y1="184.851" x2="-194.974" y2="214.784" gradientUnits="userSpaceOnUse">
<stop stop-color="#765332"/>
<stop offset="0.30532" stop-color="#997958"/>
<stop offset="0.812062" stop-color="#A47D55"/>
<stop offset="0.820519" stop-color="#8C6747"/>
</linearGradient>
<radialGradient id="paint14_radial_1693_2763" cx="0" cy="0" r="1" gradientUnits="userSpaceOnUse" gradientTransform="translate(-79.9601 250.325) rotate(-57.9028) scale(285.164 714.235)">
<stop stop-color="#472E17"/>
<stop offset="1" stop-color="#BC8959"/>
</radialGradient>
<linearGradient id="paint15_linear_1693_2763" x1="135.67" y1="184.321" x2="37.5293" y2="85.4035" gradientUnits="userSpaceOnUse">
<stop stop-color="#E35E77"/>
<stop offset="1" stop-color="#E35E77" stop-opacity="0"/>
</linearGradient>
<linearGradient id="paint16_linear_1693_2763" x1="241.036" y1="145.209" x2="254" y2="222.366" gradientUnits="userSpaceOnUse">
<stop stop-color="#785432"/>
<stop offset="1" stop-color="#56391F"/>
</linearGradient>
<linearGradient id="paint17_linear_1693_2763" x1="241.036" y1="145.209" x2="254" y2="222.366" gradientUnits="userSpaceOnUse">
<stop offset="0.295" stop-color="#4B2A15"/>
<stop offset="0.2951" stop-color="#805C3A" stop-opacity="0"/>
</linearGradient>
<linearGradient id="paint18_linear_1693_2763" x1="243.373" y1="169.319" x2="252.334" y2="222.646" gradientUnits="userSpaceOnUse">
<stop offset="0.0199" stop-opacity="0"/>
<stop offset="0.02"/>
<stop offset="0.3499"/>
<stop offset="0.35" stop-opacity="0"/>
</linearGradient>
<linearGradient id="paint19_linear_1693_2763" x1="363.284" y1="156.287" x2="258.931" y2="51.1069" gradientUnits="userSpaceOnUse">
<stop stop-color="#3070C7"/>
<stop offset="1" stop-color="#3070C7" stop-opacity="0"/>
</linearGradient>
<linearGradient id="paint20_linear_1693_2763" x1="241.413" y1="186.126" x2="254.378" y2="263.283" gradientUnits="userSpaceOnUse">
<stop stop-color="#785432"/>
<stop offset="1" stop-color="#56391F"/>
</linearGradient>
<linearGradient id="paint21_linear_1693_2763" x1="241.413" y1="186.126" x2="254.378" y2="263.283" gradientUnits="userSpaceOnUse">
<stop offset="0.295" stop-color="#4B2A15"/>
<stop offset="0.2951" stop-color="#805C3A" stop-opacity="0"/>
</linearGradient>
<linearGradient id="paint22_linear_1693_2763" x1="243.751" y1="210.236" x2="252.711" y2="263.563" gradientUnits="userSpaceOnUse">
<stop offset="0.0199" stop-opacity="0"/>
<stop offset="0.02"/>
<stop offset="0.3499"/>
<stop offset="0.35" stop-opacity="0"/>
</linearGradient>
<linearGradient id="paint23_linear_1693_2763" x1="188.896" y1="158.859" x2="194.144" y2="190.092" gradientUnits="userSpaceOnUse">
<stop stop-color="#6C4A2C"/>
<stop offset="1" stop-color="#3C1414"/>
</linearGradient>
<linearGradient id="paint24_linear_1693_2763" x1="190.969" y1="158.511" x2="196.217" y2="189.744" gradientUnits="userSpaceOnUse">
<stop stop-color="#6C4A2C"/>
<stop offset="1" stop-color="#3C1414"/>
</linearGradient>
<radialGradient id="paint25_radial_1693_2763" cx="0" cy="0" r="1" gradientUnits="userSpaceOnUse" gradientTransform="translate(236.737 160.968) rotate(87.9601) scale(42.9593 23.9865)">
<stop stop-color="#9C4C1B"/>
<stop offset="0.465" stop-color="#A25D33"/>
<stop offset="1" stop-color="#DA946A"/>
</radialGradient>
<linearGradient id="paint26_linear_1693_2763" x1="246.667" y1="146.882" x2="246.667" y2="156.274" gradientUnits="userSpaceOnUse">
<stop stop-color="#FFD6A6"/>
<stop offset="1" stop-color="#D9D9D9" stop-opacity="0.3"/>
</linearGradient>
<linearGradient id="paint27_linear_1693_2763" x1="240.019" y1="157.981" x2="240.019" y2="167.373" gradientUnits="userSpaceOnUse">
<stop stop-color="#FFD6A6"/>
<stop offset="1" stop-color="#D9D9D9" stop-opacity="0.3"/>
</linearGradient>
<linearGradient id="paint28_linear_1693_2763" x1="232.656" y1="171.24" x2="232.656" y2="180.632" gradientUnits="userSpaceOnUse">
<stop stop-color="#FFD6A6"/>
<stop offset="1" stop-color="#D9D9D9" stop-opacity="0.3"/>
</linearGradient>
<radialGradient id="paint29_radial_1693_2763" cx="0" cy="0" r="1" gradientUnits="userSpaceOnUse" gradientTransform="translate(6.92141 34.6938) rotate(88.1559) scale(47.1872 23.8209)">
<stop stop-color="#9C4C1B"/>
<stop offset="0.465" stop-color="#A25D33"/>
<stop offset="1" stop-color="#DA946A"/>
</radialGradient>
<linearGradient id="paint30_linear_1693_2763" x1="211.407" y1="142.78" x2="215.302" y2="152.821" gradientUnits="userSpaceOnUse">
<stop stop-color="#FFD6A6"/>
<stop offset="1" stop-color="#D9D9D9" stop-opacity="0.3"/>
</linearGradient>
<linearGradient id="paint31_linear_1693_2763" x1="210.977" y1="156.599" x2="214.873" y2="166.641" gradientUnits="userSpaceOnUse">
<stop stop-color="#FFD6A6"/>
<stop offset="1" stop-color="#D9D9D9" stop-opacity="0.3"/>
</linearGradient>
<linearGradient id="paint32_linear_1693_2763" x1="213.475" y1="171.881" x2="217.37" y2="181.923" gradientUnits="userSpaceOnUse">
<stop stop-color="#FFD6A6"/>
<stop offset="1" stop-color="#D9D9D9" stop-opacity="0.3"/>
</linearGradient>
<linearGradient id="paint33_linear_1693_2763" x1="171.172" y1="207.101" x2="190.73" y2="200.426" gradientUnits="userSpaceOnUse">
<stop stop-color="#B3F1FF"/>
<stop offset="0.51632" stop-color="#B9DEF9"/>
<stop offset="1" stop-color="#A9CCE0"/>
</linearGradient>
<linearGradient id="paint34_linear_1693_2763" x1="9.22117" y1="0.424118" x2="17.5607" y2="17.1217" gradientUnits="userSpaceOnUse">
<stop stop-color="#EAF5F5"/>
<stop offset="0.72" stop-color="#C6E4E9"/>
<stop offset="1" stop-color="#9FDEE7"/>
</linearGradient>
<linearGradient id="paint35_linear_1693_2763" x1="171.432" y1="202.025" x2="187.219" y2="196.637" gradientUnits="userSpaceOnUse">
<stop stop-color="#37B3CE"/>
<stop offset="0.5" stop-color="#0E8CE8"/>
<stop offset="1" stop-color="#0C8DD6"/>
</linearGradient>
<linearGradient id="paint36_linear_1693_2763" x1="7.44323" y1="0.342344" x2="14.1748" y2="13.8204" gradientUnits="userSpaceOnUse">
<stop stop-color="#59B2F2"/>
<stop offset="1" stop-color="#4BBCCC"/>
</linearGradient>
<linearGradient id="paint37_linear_1693_2763" x1="163.404" y1="164.545" x2="169.844" y2="162.348" gradientUnits="userSpaceOnUse">
<stop stop-color="#B6D8DA"/>
<stop offset="0.51632" stop-color="#EDE7D1"/>
<stop offset="1" stop-color="#98B9DF"/>
</linearGradient>
<linearGradient id="paint38_linear_1693_2763" x1="159.329" y1="159.743" x2="169.468" y2="156.283" gradientUnits="userSpaceOnUse">
<stop stop-color="#FAF6E9"/>
<stop offset="0.51632" stop-color="#0066FF" stop-opacity="0.49"/>
<stop offset="1" stop-color="#42BAD4"/>
</linearGradient>
<linearGradient id="paint39_linear_1693_2763" x1="4.78039" y1="0.219869" x2="9.10374" y2="8.87614" gradientUnits="userSpaceOnUse">
<stop stop-color="#EAF5F5"/>
<stop offset="0.72" stop-color="#C6E4E9"/>
<stop offset="1" stop-color="#9FDEE7"/>
</linearGradient>
<linearGradient id="paint40_linear_1693_2763" x1="3.852" y1="0.148438" x2="6.45216" y2="6.36218" gradientUnits="userSpaceOnUse">
<stop stop-color="#C7E2E6"/>
<stop offset="0.72" stop-color="#C6E4EB"/>
<stop offset="1" stop-color="#91CEF1"/>
</linearGradient>
<linearGradient id="paint41_linear_1693_2763" x1="172.881" y1="214.113" x2="193.131" y2="218.235" gradientUnits="userSpaceOnUse">
<stop stop-color="#B3F1FF"/>
<stop offset="0.51632" stop-color="#B9DEF9"/>
<stop offset="1" stop-color="#A9CCE0"/>
</linearGradient>
<linearGradient id="paint42_linear_1693_2763" x1="9.22117" y1="0.424118" x2="17.5607" y2="17.1217" gradientUnits="userSpaceOnUse">
<stop stop-color="#EAF5F5"/>
<stop offset="0.72" stop-color="#C6E4E9"/>
<stop offset="1" stop-color="#9FDEE7"/>
</linearGradient>
<linearGradient id="paint43_linear_1693_2763" x1="175.67" y1="209.864" x2="192.016" y2="213.191" gradientUnits="userSpaceOnUse">
<stop stop-color="#37B3CE"/>
<stop offset="0.5" stop-color="#0E8CE8"/>
<stop offset="1" stop-color="#0C8DD6"/>
</linearGradient>
<linearGradient id="paint44_linear_1693_2763" x1="7.44323" y1="0.342344" x2="14.1748" y2="13.8204" gradientUnits="userSpaceOnUse">
<stop stop-color="#59B2F2"/>
<stop offset="1" stop-color="#4BBCCC"/>
</linearGradient>
<linearGradient id="paint45_linear_1693_2763" x1="187.68" y1="173.464" x2="194.347" y2="174.821" gradientUnits="userSpaceOnUse">
<stop stop-color="#B6D8DA"/>
<stop offset="0.51632" stop-color="#EDE7D1"/>
<stop offset="1" stop-color="#98B9DF"/>
</linearGradient>
<linearGradient id="paint46_linear_1693_2763" x1="186.977" y1="167.595" x2="196.525" y2="169.538" gradientUnits="userSpaceOnUse">
<stop stop-color="#FAF6E9"/>
<stop offset="0.51632" stop-color="#0066FF" stop-opacity="0.49"/>
<stop offset="1" stop-color="#42BAD4"/>
</linearGradient>
<linearGradient id="paint47_linear_1693_2763" x1="4.34748" y1="0.199958" x2="8.27931" y2="8.07232" gradientUnits="userSpaceOnUse">
<stop stop-color="#EAF5F5"/>
<stop offset="0.72" stop-color="#C6E4E9"/>
<stop offset="1" stop-color="#9FDEE7"/>
</linearGradient>
<linearGradient id="paint48_linear_1693_2763" x1="3.50317" y1="0.134996" x2="5.86786" y2="5.78602" gradientUnits="userSpaceOnUse">
<stop stop-color="#C7E2E6"/>
<stop offset="0.72" stop-color="#C6E4EB"/>
<stop offset="1" stop-color="#91CEF1"/>
</linearGradient>
<linearGradient id="paint49_linear_1693_2763" x1="175.619" y1="201.686" x2="162.671" y2="206.029" gradientUnits="userSpaceOnUse">
<stop stop-color="#E4D59F"/>
<stop offset="0.51632" stop-color="#FFC700"/>
<stop offset="1" stop-color="#D49742"/>
</linearGradient>
<linearGradient id="paint50_linear_1693_2763" x1="159.982" y1="190.41" x2="165.494" y2="201.445" gradientUnits="userSpaceOnUse">
<stop stop-color="#CF924A"/>
<stop offset="0.72" stop-color="#FFC700"/>
<stop offset="1" stop-color="#F1DC91"/>
</linearGradient>
<linearGradient id="paint51_linear_1693_2763" x1="160.992" y1="191.758" x2="164.307" y2="199.679" gradientUnits="userSpaceOnUse">
<stop stop-color="#CF924A"/>
<stop offset="0.72" stop-color="#FFC700"/>
<stop offset="1" stop-color="#F1DC91"/>
</linearGradient>
<linearGradient id="paint52_linear_1693_2763" x1="162.315" y1="196.86" x2="149.367" y2="201.202" gradientUnits="userSpaceOnUse">
<stop stop-color="#E4D59F"/>
<stop offset="0.51632" stop-color="#FFC700"/>
<stop offset="1" stop-color="#D49742"/>
</linearGradient>
<linearGradient id="paint53_linear_1693_2763" x1="146.679" y1="185.584" x2="152.19" y2="196.619" gradientUnits="userSpaceOnUse">
<stop stop-color="#CF924A"/>
<stop offset="0.72" stop-color="#FFC700"/>
<stop offset="1" stop-color="#F1DC91"/>
</linearGradient>
<linearGradient id="paint54_linear_1693_2763" x1="147.689" y1="186.932" x2="151.003" y2="194.853" gradientUnits="userSpaceOnUse">
<stop stop-color="#CF924A"/>
<stop offset="0.72" stop-color="#FFC700"/>
<stop offset="1" stop-color="#F1DC91"/>
</linearGradient>
<linearGradient id="paint55_linear_1693_2763" x1="134.764" y1="207.349" x2="147.69" y2="202.938" gradientUnits="userSpaceOnUse">
<stop stop-color="#E4D59F"/>
<stop offset="0.51632" stop-color="#FFC700"/>
<stop offset="1" stop-color="#D49742"/>
</linearGradient>
<linearGradient id="paint56_linear_1693_2763" x1="6.09389" y1="0.280282" x2="11.6051" y2="11.315" gradientUnits="userSpaceOnUse">
<stop stop-color="#CF924A"/>
<stop offset="0.72" stop-color="#FFC700"/>
<stop offset="1" stop-color="#F1DC91"/>
</linearGradient>
<linearGradient id="paint57_linear_1693_2763" x1="4.91041" y1="0.189224" x2="8.225" y2="8.11029" gradientUnits="userSpaceOnUse">
<stop stop-color="#CF924A"/>
<stop offset="0.72" stop-color="#FFC700"/>
<stop offset="1" stop-color="#F1DC91"/>
</linearGradient>
<linearGradient id="paint58_linear_1693_2763" x1="168" y1="194.329" x2="157.47" y2="197.861" gradientUnits="userSpaceOnUse">
<stop stop-color="#E4D59F"/>
<stop offset="0.51632" stop-color="#FFC700"/>
<stop offset="1" stop-color="#D49742"/>
</linearGradient>
<linearGradient id="paint59_linear_1693_2763" x1="155.284" y1="185.159" x2="159.766" y2="194.133" gradientUnits="userSpaceOnUse">
<stop stop-color="#CF924A"/>
<stop offset="0.72" stop-color="#FFC700"/>
<stop offset="1" stop-color="#F1DC91"/>
</linearGradient>
<linearGradient id="paint60_linear_1693_2763" x1="156.105" y1="186.255" x2="158.801" y2="192.697" gradientUnits="userSpaceOnUse">
<stop stop-color="#CF924A"/>
<stop offset="0.72" stop-color="#FFC700"/>
<stop offset="1" stop-color="#F1DC91"/>
</linearGradient>
<linearGradient id="paint61_linear_1693_2763" x1="190.415" y1="196.057" x2="179.885" y2="199.588" gradientUnits="userSpaceOnUse">
<stop stop-color="#E4D59F"/>
<stop offset="0.51632" stop-color="#FFC700"/>
<stop offset="1" stop-color="#D49742"/>
</linearGradient>
<linearGradient id="paint62_linear_1693_2763" x1="177.699" y1="186.887" x2="182.18" y2="195.86" gradientUnits="userSpaceOnUse">
<stop stop-color="#CF924A"/>
<stop offset="0.72" stop-color="#FFC700"/>
<stop offset="1" stop-color="#F1DC91"/>
</linearGradient>
<linearGradient id="paint63_linear_1693_2763" x1="178.52" y1="187.983" x2="181.216" y2="194.424" gradientUnits="userSpaceOnUse">
<stop stop-color="#CF924A"/>
<stop offset="0.72" stop-color="#FFC700"/>
<stop offset="1" stop-color="#F1DC91"/>
</linearGradient>
<linearGradient id="paint64_linear_1693_2763" x1="139.86" y1="195.351" x2="150.371" y2="191.764" gradientUnits="userSpaceOnUse">
<stop stop-color="#E4D59F"/>
<stop offset="0.51632" stop-color="#FFC700"/>
<stop offset="1" stop-color="#D49742"/>
</linearGradient>
<linearGradient id="paint65_linear_1693_2763" x1="4.95568" y1="0.227932" x2="9.43756" y2="9.20161" gradientUnits="userSpaceOnUse">
<stop stop-color="#CF924A"/>
<stop offset="0.72" stop-color="#FFC700"/>
<stop offset="1" stop-color="#F1DC91"/>
</linearGradient>
<linearGradient id="paint66_linear_1693_2763" x1="3.99325" y1="0.153881" x2="6.68875" y2="6.59547" gradientUnits="userSpaceOnUse">
<stop stop-color="#CF924A"/>
<stop offset="0.72" stop-color="#FFC700"/>
<stop offset="1" stop-color="#F1DC91"/>
</linearGradient>
<linearGradient id="paint67_linear_1693_2763" x1="188.819" y1="207.88" x2="201.8" y2="305.971" gradientUnits="userSpaceOnUse">
<stop stop-color="#785432"/>
<stop offset="1" stop-color="#56391F"/>
</linearGradient>
<linearGradient id="paint68_linear_1693_2763" x1="188.819" y1="207.88" x2="201.8" y2="305.971" gradientUnits="userSpaceOnUse">
<stop offset="0.295" stop-color="#4B2A15"/>
<stop offset="0.2951" stop-color="#805C3A" stop-opacity="0"/>
</linearGradient>
<linearGradient id="paint69_linear_1693_2763" x1="191.77" y1="238.316" x2="200.742" y2="306.111" gradientUnits="userSpaceOnUse">
<stop offset="0.0199" stop-opacity="0"/>
<stop offset="0.02"/>
<stop offset="0.3499"/>
<stop offset="0.35" stop-opacity="0"/>
</linearGradient>
<linearGradient id="paint70_linear_1693_2763" x1="191.604" y1="237.858" x2="191.604" y2="250.327" gradientUnits="userSpaceOnUse">
<stop stop-color="#785432"/>
<stop offset="1" stop-color="#56391F"/>
</linearGradient>
<linearGradient id="paint71_linear_1693_2763" x1="191.604" y1="237.858" x2="191.604" y2="250.327" gradientUnits="userSpaceOnUse">
<stop offset="0.295" stop-color="#4B2A15"/>
<stop offset="0.2951" stop-color="#805C3A" stop-opacity="0"/>
</linearGradient>
<linearGradient id="paint72_linear_1693_2763" x1="200.096" y1="219.63" x2="200.096" y2="232.098" gradientUnits="userSpaceOnUse">
<stop stop-color="#785432"/>
<stop offset="1" stop-color="#56391F"/>
</linearGradient>
<linearGradient id="paint73_linear_1693_2763" x1="200.096" y1="219.63" x2="200.096" y2="232.098" gradientUnits="userSpaceOnUse">
<stop offset="0.295" stop-color="#4B2A15"/>
<stop offset="0.2951" stop-color="#805C3A" stop-opacity="0"/>
</linearGradient>
<linearGradient id="paint74_linear_1693_2763" x1="231.961" y1="216.831" x2="231.961" y2="229.299" gradientUnits="userSpaceOnUse">
<stop stop-color="#785432"/>
<stop offset="1" stop-color="#56391F"/>
</linearGradient>
<linearGradient id="paint75_linear_1693_2763" x1="231.961" y1="216.831" x2="231.961" y2="229.299" gradientUnits="userSpaceOnUse">
<stop offset="0.295" stop-color="#4B2A15"/>
<stop offset="0.2951" stop-color="#805C3A" stop-opacity="0"/>
</linearGradient>
<linearGradient id="paint76_linear_1693_2763" x1="193.175" y1="239.639" x2="193.175" y2="252.107" gradientUnits="userSpaceOnUse">
<stop stop-color="#785432"/>
<stop offset="1" stop-color="#56391F"/>
</linearGradient>
<linearGradient id="paint77_linear_1693_2763" x1="193.175" y1="239.639" x2="193.175" y2="252.107" gradientUnits="userSpaceOnUse">
<stop offset="0.295" stop-color="#4B2A15"/>
<stop offset="0.2951" stop-color="#805C3A" stop-opacity="0"/>
</linearGradient>
<linearGradient id="paint78_linear_1693_2763" x1="193.175" y1="243.49" x2="193.175" y2="252.107" gradientUnits="userSpaceOnUse">
<stop offset="0.0199" stop-opacity="0"/>
<stop offset="0.02"/>
<stop offset="0.3499"/>
<stop offset="0.35" stop-opacity="0"/>
</linearGradient>
<linearGradient id="paint79_linear_1693_2763" x1="201.666" y1="221.41" x2="201.666" y2="233.878" gradientUnits="userSpaceOnUse">
<stop stop-color="#785432"/>
<stop offset="1" stop-color="#56391F"/>
</linearGradient>
<linearGradient id="paint80_linear_1693_2763" x1="201.666" y1="221.41" x2="201.666" y2="233.878" gradientUnits="userSpaceOnUse">
<stop offset="0.295" stop-color="#4B2A15"/>
<stop offset="0.2951" stop-color="#805C3A" stop-opacity="0"/>
</linearGradient>
<linearGradient id="paint81_linear_1693_2763" x1="201.666" y1="225.261" x2="201.666" y2="233.878" gradientUnits="userSpaceOnUse">
<stop offset="0.0199" stop-opacity="0"/>
<stop offset="0.02"/>
<stop offset="0.3499"/>
<stop offset="0.35" stop-opacity="0"/>
</linearGradient>
<linearGradient id="paint82_linear_1693_2763" x1="233.532" y1="218.611" x2="233.532" y2="231.08" gradientUnits="userSpaceOnUse">
<stop stop-color="#785432"/>
<stop offset="1" stop-color="#56391F"/>
</linearGradient>
<linearGradient id="paint83_linear_1693_2763" x1="233.532" y1="218.611" x2="233.532" y2="231.08" gradientUnits="userSpaceOnUse">
<stop offset="0.295" stop-color="#4B2A15"/>
<stop offset="0.2951" stop-color="#805C3A" stop-opacity="0"/>
</linearGradient>
<linearGradient id="paint84_linear_1693_2763" x1="233.532" y1="222.462" x2="233.532" y2="231.08" gradientUnits="userSpaceOnUse">
<stop offset="0.0199" stop-opacity="0"/>
<stop offset="0.02"/>
<stop offset="0.3499"/>
<stop offset="0.35" stop-opacity="0"/>
</linearGradient>
<linearGradient id="paint85_linear_1693_2763" x1="189.028" y1="210.034" x2="202.009" y2="308.125" gradientUnits="userSpaceOnUse">
<stop stop-color="#785432"/>
<stop offset="1" stop-color="#56391F"/>
</linearGradient>
<linearGradient id="paint86_linear_1693_2763" x1="189.028" y1="210.034" x2="202.009" y2="308.125" gradientUnits="userSpaceOnUse">
<stop offset="0.295" stop-color="#4B2A15"/>
<stop offset="0.2951" stop-color="#805C3A" stop-opacity="0"/>
</linearGradient>
<linearGradient id="paint87_linear_1693_2763" x1="191.979" y1="240.47" x2="200.951" y2="308.265" gradientUnits="userSpaceOnUse">
<stop offset="0.0199" stop-opacity="0"/>
<stop offset="0.02"/>
<stop offset="0.3499"/>
<stop offset="0.35" stop-opacity="0"/>
</linearGradient>
<linearGradient id="paint88_linear_1693_2763" x1="189.284" y1="212.667" x2="202.264" y2="310.759" gradientUnits="userSpaceOnUse">
<stop stop-color="#785432"/>
<stop offset="1" stop-color="#56391F"/>
</linearGradient>
<linearGradient id="paint89_linear_1693_2763" x1="189.284" y1="212.667" x2="202.264" y2="310.759" gradientUnits="userSpaceOnUse">
<stop offset="0.295" stop-color="#4B2A15"/>
<stop offset="0.2951" stop-color="#805C3A" stop-opacity="0"/>
</linearGradient>
<linearGradient id="paint90_linear_1693_2763" x1="192.235" y1="243.103" x2="201.206" y2="310.899" gradientUnits="userSpaceOnUse">
<stop offset="0.0199" stop-opacity="0"/>
<stop offset="0.02"/>
<stop offset="0.3499"/>
<stop offset="0.35" stop-opacity="0"/>
</linearGradient>
<linearGradient id="paint91_linear_1693_2763" x1="192.022" y1="233.507" x2="192.022" y2="258.692" gradientUnits="userSpaceOnUse">
<stop stop-color="#785432"/>
<stop offset="1" stop-color="#56391F"/>
</linearGradient>
<linearGradient id="paint92_linear_1693_2763" x1="192.022" y1="233.507" x2="192.022" y2="258.692" gradientUnits="userSpaceOnUse">
<stop offset="0.295" stop-color="#4B2A15"/>
<stop offset="0.2951" stop-color="#805C3A" stop-opacity="0"/>
</linearGradient>
<linearGradient id="paint93_linear_1693_2763" x1="192.022" y1="241.285" x2="192.022" y2="258.692" gradientUnits="userSpaceOnUse">
<stop offset="0.0199" stop-opacity="0"/>
<stop offset="0.02"/>
<stop offset="0.3499"/>
<stop offset="0.35" stop-opacity="0"/>
</linearGradient>
<linearGradient id="paint94_linear_1693_2763" x1="420.917" y1="181.246" x2="393.901" y2="148.292" gradientUnits="userSpaceOnUse">
<stop stop-color="#4CA98F"/>
<stop offset="1" stop-color="#4CA98F" stop-opacity="0"/>
</linearGradient>
<clipPath id="clip0_1693_2763">
<rect width="560" height="283" rx="16" fill="white"/>
</clipPath>
</defs>
</svg>
