<svg width="560" height="283" viewBox="0 0 560 283" fill="none" xmlns="http://www.w3.org/2000/svg">
<g clip-path="url(#clip0_1693_2969)">
<rect width="560" height="283" rx="16" fill="url(#paint0_linear_1693_2969)"/>
<path d="M183.124 180.043C251.393 173.406 360.433 111.774 411.635 103.241C437.039 99.0066 514.302 82.461 583.255 79.5361C625.481 77.745 661.722 90.975 689.451 86.1734L697.037 275.809L623.079 352.611L33.3119 330.803L20.0374 172.458C51.6434 177.199 128.509 185.353 183.124 180.043Z" fill="url(#paint1_linear_1693_2969)"/>
<path opacity="0.6" d="M20.0374 169.791C51.6434 174.532 107.649 187.131 162.264 181.821C195.275 178.612 244.728 188.912 289.32 175.184C336.947 160.521 379.503 121.752 405.946 117.345C429.14 113.479 528.696 143.355 589.893 117.345C644.511 94.1302 657.966 127.703 697.037 134.412V273.143L623.079 349.945L33.3119 328.137L20.0374 169.791Z" fill="url(#paint2_linear_1693_2969)"/>
<path opacity="0.8" d="M-52.9724 177.048C-21.3664 181.789 34.6393 194.388 89.2544 189.078C122.265 185.868 171.718 196.169 216.31 182.441C263.937 167.778 306.493 129.009 332.936 124.602C356.131 120.736 455.686 150.612 516.883 124.602C571.502 101.387 584.956 134.96 624.027 141.669V280.399L550.069 357.202L-39.6979 335.394L-52.9724 177.048Z" fill="url(#paint3_linear_1693_2969)"/>
<path d="M20.0374 198.355C51.6434 203.095 107.649 215.694 162.264 210.384C195.275 207.175 244.728 217.476 289.32 203.747C336.947 189.084 379.503 150.316 405.946 145.908C429.14 142.043 528.696 171.919 589.893 145.908C644.511 122.694 657.966 156.267 697.037 162.976V301.706L623.079 378.509L33.3119 356.7L20.0374 198.355Z" fill="url(#paint4_linear_1693_2969)"/>
<g filter="url(#filter0_i_1693_2969)">
<rect x="-20.9907" y="126.303" width="677" height="171.337" rx="2" transform="rotate(10.7579 -20.9907 126.303)" fill="url(#paint5_linear_1693_2969)"/>
<rect x="-20.9907" y="126.303" width="677" height="171.337" rx="2" transform="rotate(10.7579 -20.9907 126.303)" fill="url(#paint6_linear_1693_2969)" fill-opacity="0.2"/>
<rect x="-20.9907" y="126.303" width="677" height="171.337" rx="2" transform="rotate(10.7579 -20.9907 126.303)" fill="url(#paint7_linear_1693_2969)" fill-opacity="0.2"/>
</g>
<g filter="url(#filter1_i_1693_2969)">
<rect x="37.2751" y="32.167" width="416.3" height="173.135" rx="2" fill="url(#paint8_linear_1693_2969)"/>
<rect x="37.2751" y="32.167" width="416.3" height="173.135" rx="2" fill="url(#paint9_linear_1693_2969)" fill-opacity="0.2"/>
<rect x="37.2751" y="32.167" width="416.3" height="173.135" rx="2" fill="url(#paint10_linear_1693_2969)" fill-opacity="0.2"/>
</g>
<rect x="50.9031" y="44.7939" width="389.044" height="147.882" fill="#54A78C"/>
<path d="M269.206 148.733C269.063 126.955 275.054 84.2941 300.163 87.874C331.551 92.349 310.483 158.131 331.551 166.633C352.619 175.135 370.248 142.468 365.088 127.254C359.929 112.039 362.938 94.5865 378.417 95.034C390.8 95.3919 393.896 99.9564 393.896 99.9564" stroke="#F5ECEC" stroke-width="4" stroke-linecap="round" stroke-dasharray="8 8"/>
<path d="M389.88 90.5674L401.713 110.024" stroke="#F5ECEC" stroke-width="4" stroke-linecap="round"/>
<path d="M387.4 106.771L404.193 93.8201" stroke="#F5ECEC" stroke-width="4" stroke-linecap="round"/>
<ellipse cx="139.892" cy="267.992" rx="69.9995" ry="9.645" fill="#230505" fill-opacity="0.4"/>
<rect x="139.892" y="79.3682" width="137.378" height="137.378" rx="6.20799" transform="rotate(45 139.892 79.3682)" fill="white"/>
<rect x="139.892" y="79.3682" width="137.378" height="137.378" rx="6.20799" transform="rotate(45 139.892 79.3682)" fill="url(#paint11_linear_1693_2969)"/>
<ellipse cx="119.999" cy="168.764" rx="3.10399" ry="6.20799" fill="white"/>
<path d="M110.829 178.771L107.461 182.474" stroke="white" stroke-width="1.2416" stroke-linecap="round"/>
<path d="M115.173 178.696L111.805 182.398" stroke="white" stroke-width="1.2416" stroke-linecap="round"/>
<path d="M158.363 178.771L161.731 182.474" stroke="white" stroke-width="1.2416" stroke-linecap="round"/>
<path d="M154.019 178.696L157.387 182.398" stroke="white" stroke-width="1.2416" stroke-linecap="round"/>
<path d="M129.663 178.696C131.111 180.145 135.25 182.173 140.216 178.696" stroke="white" stroke-width="2.4832" stroke-linecap="round"/>
<g filter="url(#filter2_i_1693_2969)">
<path d="M104.081 111.366L142.124 150.511C142.124 150.511 137.226 166.557 147.622 173.523C158.017 180.489 166.698 175.636 166.698 175.636L202.377 211.866L209.891 204.516L160.743 154.266L111.595 104.016L104.081 111.366Z" fill="#634B36"/>
</g>
<g filter="url(#filter3_ii_1693_2969)">
<path d="M85.7879 132.112L64.1092 110.108C63.0019 108.984 63.5711 107.081 65.1137 106.749L97.7314 99.7406C98.3254 99.6129 98.8244 99.2195 99.1211 98.6894C104.115 89.7651 118.704 78.4736 136.713 78.4736C155.242 78.4736 164.266 84.6639 174.83 98.9693C175.1 99.3343 175.487 99.6035 175.924 99.7227L214.779 110.297C216.288 110.708 216.763 112.614 215.623 113.685L195.958 132.154C195.386 132.691 194.562 132.846 193.831 132.559C184.476 128.894 162.879 122.402 142.148 122.402C121.355 122.402 98.1064 128.933 87.9099 132.593C87.1667 132.859 86.3421 132.674 85.7879 132.112Z" fill="url(#paint12_linear_1693_2969)"/>
</g>
<rect x="200.534" y="175.724" width="67.0767" height="15.4541" rx="6" transform="rotate(-37.2633 200.534 175.724)" fill="url(#paint13_linear_1693_2969)"/>
<rect x="484.364" y="214.783" width="101.604" height="83.2951" rx="4.19813" transform="rotate(50.655 484.364 214.783)" fill="white"/>
<rect x="484.364" y="214.783" width="101.604" height="83.2951" rx="4.19813" transform="rotate(50.655 484.364 214.783)" fill="url(#paint14_linear_1693_2969)"/>
<rect x="309.493" y="189.339" width="101.604" height="83.2951" rx="4.19813" transform="rotate(50.655 309.493 189.339)" fill="white"/>
<rect x="309.493" y="189.339" width="101.604" height="83.2951" rx="4.19813" transform="rotate(50.655 309.493 189.339)" fill="url(#paint15_linear_1693_2969)"/>
<path d="M297.393 248.109C298.767 249.786 302.695 252.535 307.409 250.113" stroke="white" stroke-width="2.40341" stroke-linecap="round"/>
<rect x="389.291" y="190.015" width="104.16" height="85.3904" rx="4.30374" transform="rotate(50.655 389.291 190.015)" fill="#FFE1A4"/>
<rect x="389.291" y="190.015" width="104.16" height="85.3904" rx="4.30374" transform="rotate(50.655 389.291 190.015)" fill="url(#paint16_linear_1693_2969)"/>
<ellipse cx="3.47816" cy="6.95633" rx="3.47816" ry="6.95633" transform="matrix(0.980581 0.196116 0 1 361.916 234.902)" fill="white"/>
<ellipse cx="3.47816" cy="6.95633" rx="3.47816" ry="6.95633" transform="matrix(0.980581 0.196116 0 1 389.447 241.556)" fill="white"/>
<path d="M381.72 258.817C381.72 260.281 381.182 261.859 380.271 262.984C379.356 264.115 378.187 264.653 376.979 264.412C375.75 264.166 374.462 263.113 373.434 261.576C372.414 260.051 371.792 258.253 371.792 256.831C371.792 255.492 372.338 254.748 373.196 254.355C374.109 253.936 375.44 253.895 376.979 254.203C378.519 254.511 379.715 255.058 380.5 255.789C381.231 256.469 381.72 257.411 381.72 258.817Z" stroke="white" stroke-width="2"/>
<path d="M355.251 251.74L351.55 255.148" stroke="white" stroke-width="1.39127" stroke-linecap="round"/>
<path d="M360.024 252.61L356.323 256.018" stroke="white" stroke-width="1.39127" stroke-linecap="round"/>
<path d="M407.481 262.186L411.181 267.074" stroke="white" stroke-width="1.39127" stroke-linecap="round"/>
<path d="M402.708 261.147L406.408 266.035" stroke="white" stroke-width="1.39127" stroke-linecap="round"/>
<ellipse cx="3.47816" cy="6.95633" rx="3.47816" ry="6.95633" transform="matrix(0.980581 0.196116 0 1 461.573 248.701)" fill="white"/>
<ellipse cx="3.47816" cy="6.95633" rx="3.47816" ry="6.95633" transform="matrix(0.980581 0.196116 0 1 490.271 253.038)" fill="white"/>
<path d="M483.524 273.374C483.524 270.002 481.086 270.159 477.803 269.502C474.52 268.845 471.635 267.625 471.635 270.996C471.635 274.367 474.52 276.238 477.803 276.895C481.086 277.551 483.524 276.745 483.524 273.374Z" stroke="white" stroke-width="2"/>
<path d="M454.908 265.539L451.208 268.947" stroke="white" stroke-width="1.39127" stroke-linecap="round"/>
<path d="M459.681 266.409L455.98 269.817" stroke="white" stroke-width="1.39127" stroke-linecap="round"/>
<path d="M507.138 275.985L510.839 280.873" stroke="white" stroke-width="1.39127" stroke-linecap="round"/>
<path d="M502.365 274.946L506.066 279.834" stroke="white" stroke-width="1.39127" stroke-linecap="round"/>
<ellipse cx="3.47816" cy="6.95633" rx="3.47816" ry="6.95633" transform="matrix(0.980581 0.196116 0 1 286.987 227.925)" fill="white"/>
<ellipse cx="3.47816" cy="6.95633" rx="3.47816" ry="6.95633" transform="matrix(0.980581 0.196116 0 1 314.772 233.197)" fill="white"/>
<path d="M280.322 244.762L276.621 248.171" stroke="white" stroke-width="1.39127" stroke-linecap="round"/>
<path d="M285.095 245.633L281.394 249.041" stroke="white" stroke-width="1.39127" stroke-linecap="round"/>
<path d="M327.008 252.947L330.708 257.836" stroke="white" stroke-width="1.39127" stroke-linecap="round"/>
<path d="M322.235 251.908L325.936 256.797" stroke="white" stroke-width="1.39127" stroke-linecap="round"/>
</g>
<defs>
<filter id="filter0_i_1693_2969" x="-52.6345" y="126.641" width="696.407" height="294.019" filterUnits="userSpaceOnUse" color-interpolation-filters="sRGB">
<feFlood flood-opacity="0" result="BackgroundImageFix"/>
<feBlend mode="normal" in="SourceGraphic" in2="BackgroundImageFix" result="shape"/>
<feColorMatrix in="SourceAlpha" type="matrix" values="0 0 0 0 0 0 0 0 0 0 0 0 0 0 0 0 0 0 127 0" result="hardAlpha"/>
<feOffset dx="-11" dy="-9"/>
<feComposite in2="hardAlpha" operator="arithmetic" k2="-1" k3="1"/>
<feColorMatrix type="matrix" values="0 0 0 0 0 0 0 0 0 0 0 0 0 0 0 0 0 0 0.25 0"/>
<feBlend mode="normal" in2="shape" result="effect1_innerShadow_1693_2969"/>
</filter>
<filter id="filter1_i_1693_2969" x="37.2751" y="32.167" width="416.3" height="173.135" filterUnits="userSpaceOnUse" color-interpolation-filters="sRGB">
<feFlood flood-opacity="0" result="BackgroundImageFix"/>
<feBlend mode="normal" in="SourceGraphic" in2="BackgroundImageFix" result="shape"/>
<feColorMatrix in="SourceAlpha" type="matrix" values="0 0 0 0 0 0 0 0 0 0 0 0 0 0 0 0 0 0 127 0" result="hardAlpha"/>
<feOffset dx="-11" dy="-9"/>
<feComposite in2="hardAlpha" operator="arithmetic" k2="-1" k3="1"/>
<feColorMatrix type="matrix" values="0 0 0 0 0 0 0 0 0 0 0 0 0 0 0 0 0 0 0.25 0"/>
<feBlend mode="normal" in2="shape" result="effect1_innerShadow_1693_2969"/>
</filter>
<filter id="filter2_i_1693_2969" x="104.081" y="104.016" width="105.811" height="107.851" filterUnits="userSpaceOnUse" color-interpolation-filters="sRGB">
<feFlood flood-opacity="0" result="BackgroundImageFix"/>
<feBlend mode="normal" in="SourceGraphic" in2="BackgroundImageFix" result="shape"/>
<feColorMatrix in="SourceAlpha" type="matrix" values="0 0 0 0 0 0 0 0 0 0 0 0 0 0 0 0 0 0 127 0" result="hardAlpha"/>
<feOffset dx="1" dy="-1"/>
<feComposite in2="hardAlpha" operator="arithmetic" k2="-1" k3="1"/>
<feColorMatrix type="matrix" values="0 0 0 0 0 0 0 0 0 0 0 0 0 0 0 0 0 0 0.25 0"/>
<feBlend mode="normal" in2="shape" result="effect1_innerShadow_1693_2969"/>
</filter>
<filter id="filter3_ii_1693_2969" x="63.5322" y="78.4736" width="152.723" height="54.2393" filterUnits="userSpaceOnUse" color-interpolation-filters="sRGB">
<feFlood flood-opacity="0" result="BackgroundImageFix"/>
<feBlend mode="normal" in="SourceGraphic" in2="BackgroundImageFix" result="shape"/>
<feColorMatrix in="SourceAlpha" type="matrix" values="0 0 0 0 0 0 0 0 0 0 0 0 0 0 0 0 0 0 127 0" result="hardAlpha"/>
<feOffset dx="14" dy="3"/>
<feComposite in2="hardAlpha" operator="arithmetic" k2="-1" k3="1"/>
<feColorMatrix type="matrix" values="0 0 0 0 0 0 0 0 0 0 0 0 0 0 0 0 0 0 0.25 0"/>
<feBlend mode="normal" in2="shape" result="effect1_innerShadow_1693_2969"/>
<feColorMatrix in="SourceAlpha" type="matrix" values="0 0 0 0 0 0 0 0 0 0 0 0 0 0 0 0 0 0 127 0" result="hardAlpha"/>
<feOffset dy="-4"/>
<feComposite in2="hardAlpha" operator="arithmetic" k2="-1" k3="1"/>
<feColorMatrix type="matrix" values="0 0 0 0 0 0 0 0 0 0 0 0 0 0 0 0 0 0 0.25 0"/>
<feBlend mode="normal" in2="effect1_innerShadow_1693_2969" result="effect2_innerShadow_1693_2969"/>
</filter>
<linearGradient id="paint0_linear_1693_2969" x1="280" y1="0" x2="280" y2="283" gradientUnits="userSpaceOnUse">
<stop stop-color="#BEE1FC"/>
<stop offset="1" stop-color="#F5D9B9"/>
</linearGradient>
<linearGradient id="paint1_linear_1693_2969" x1="358.537" y1="56.7799" x2="358.537" y2="352.612" gradientUnits="userSpaceOnUse">
<stop stop-color="#4CA98F"/>
<stop offset="1" stop-color="#3070C7"/>
</linearGradient>
<linearGradient id="paint2_linear_1693_2969" x1="358.537" y1="54.1134" x2="358.537" y2="349.945" gradientUnits="userSpaceOnUse">
<stop stop-color="#7FD9C0"/>
<stop offset="1" stop-color="#3070C7"/>
</linearGradient>
<linearGradient id="paint3_linear_1693_2969" x1="285.527" y1="61.3702" x2="285.527" y2="357.202" gradientUnits="userSpaceOnUse">
<stop stop-color="#7FD9C0"/>
<stop offset="1" stop-color="#3070C7"/>
</linearGradient>
<linearGradient id="paint4_linear_1693_2969" x1="358.537" y1="82.6768" x2="358.537" y2="378.509" gradientUnits="userSpaceOnUse">
<stop stop-color="#7FD9C0"/>
<stop offset="1" stop-color="#3070C7"/>
</linearGradient>
<linearGradient id="paint5_linear_1693_2969" x1="317.509" y1="126.303" x2="317.509" y2="297.64" gradientUnits="userSpaceOnUse">
<stop stop-color="#785432"/>
<stop offset="1" stop-color="#56391F"/>
</linearGradient>
<linearGradient id="paint6_linear_1693_2969" x1="317.509" y1="126.303" x2="317.509" y2="297.64" gradientUnits="userSpaceOnUse">
<stop offset="0.295" stop-color="#4B2A15"/>
<stop offset="0.2951" stop-color="#805C3A" stop-opacity="0"/>
</linearGradient>
<linearGradient id="paint7_linear_1693_2969" x1="317.509" y1="179.221" x2="317.509" y2="297.64" gradientUnits="userSpaceOnUse">
<stop offset="0.0199" stop-opacity="0"/>
<stop offset="0.02"/>
<stop offset="0.3499"/>
<stop offset="0.35" stop-opacity="0"/>
</linearGradient>
<linearGradient id="paint8_linear_1693_2969" x1="245.425" y1="32.167" x2="245.425" y2="205.302" gradientUnits="userSpaceOnUse">
<stop stop-color="#785432"/>
<stop offset="1" stop-color="#56391F"/>
</linearGradient>
<linearGradient id="paint9_linear_1693_2969" x1="245.425" y1="32.167" x2="245.425" y2="205.302" gradientUnits="userSpaceOnUse">
<stop offset="0.295" stop-color="#4B2A15"/>
<stop offset="0.2951" stop-color="#805C3A" stop-opacity="0"/>
</linearGradient>
<linearGradient id="paint10_linear_1693_2969" x1="245.425" y1="85.6408" x2="245.425" y2="205.302" gradientUnits="userSpaceOnUse">
<stop offset="0.0199" stop-opacity="0"/>
<stop offset="0.02"/>
<stop offset="0.3499"/>
<stop offset="0.35" stop-opacity="0"/>
</linearGradient>
<linearGradient id="paint11_linear_1693_2969" x1="223.087" y1="162.982" x2="64.369" y2="3.00702" gradientUnits="userSpaceOnUse">
<stop stop-color="#9179CC"/>
<stop offset="1" stop-color="#9179CC" stop-opacity="0"/>
</linearGradient>
<linearGradient id="paint12_linear_1693_2969" x1="193.729" y1="77.2068" x2="151.936" y2="140.935" gradientUnits="userSpaceOnUse">
<stop stop-color="#634B36"/>
<stop offset="1" stop-color="#634B36"/>
<stop offset="1" stop-color="#281F17"/>
</linearGradient>
<linearGradient id="paint13_linear_1693_2969" x1="234.073" y1="175.724" x2="234.073" y2="191.178" gradientUnits="userSpaceOnUse">
<stop stop-color="white"/>
<stop offset="1" stop-color="#D9D9D9"/>
</linearGradient>
<linearGradient id="paint14_linear_1693_2969" x1="545.894" y1="265.48" x2="451.675" y2="149.641" gradientUnits="userSpaceOnUse">
<stop stop-color="#3070C7"/>
<stop offset="1" stop-color="#3070C7" stop-opacity="0"/>
</linearGradient>
<linearGradient id="paint15_linear_1693_2969" x1="371.023" y1="240.036" x2="276.804" y2="124.196" gradientUnits="userSpaceOnUse">
<stop stop-color="#E35E77"/>
<stop offset="1" stop-color="#E35E77" stop-opacity="0"/>
</linearGradient>
<linearGradient id="paint16_linear_1693_2969" x1="445.047" y1="235.984" x2="380.834" y2="157.657" gradientUnits="userSpaceOnUse">
<stop stop-color="#F5C259"/>
<stop offset="0.68437" stop-color="#FFECC4"/>
<stop offset="1" stop-color="#F5C259" stop-opacity="0"/>
</linearGradient>
<clipPath id="clip0_1693_2969">
<rect width="560" height="283" rx="16" fill="white"/>
</clipPath>
</defs>
</svg>
